<svg width="372" height="36" viewBox="0 0 372 36" fill="none" xmlns="http://www.w3.org/2000/svg">
<g clip-path="url(#clip0_11250_260266)">
<path d="M112.627 23.091C112.627 27.1769 112.627 31.2628 112.637 35.3487C112.637 35.8607 112.506 36.0113 111.983 36.0012C110.204 35.9711 108.425 35.9711 106.646 36.0012C106.164 36.0012 106.074 35.8506 106.074 35.4089C106.094 33.0497 106.074 30.6805 106.094 28.3113C106.094 27.8094 105.943 27.6989 105.47 27.709C103.119 27.7391 100.777 27.7391 98.425 27.709C97.9727 27.709 97.822 27.8194 97.832 28.2912C97.8622 30.6504 97.832 33.0196 97.8521 35.3888C97.8521 35.8807 97.7114 36.0113 97.229 36.0113C95.45 35.9811 93.6711 35.9912 91.8921 36.0113C91.4599 36.0113 91.2891 35.9309 91.2891 35.439C91.3092 27.5383 91.2891 19.6476 91.3092 11.7569C91.3092 9.54834 91.6609 7.39999 92.7464 5.43234C95.3998 0.643715 102.867 -2.55874 109.038 2.81215C111.541 4.98058 112.586 7.81159 112.627 11.0341C112.677 15.0598 112.637 19.0854 112.637 23.1111M97.8421 15.4613C97.8421 17.1981 97.8521 18.9348 97.8421 20.6716C97.8421 21.1133 97.9627 21.2338 98.3949 21.2237C100.757 21.2037 103.129 21.2037 105.491 21.2237C106.003 21.2237 106.094 21.0631 106.094 20.5913C106.074 17.2081 106.084 13.835 106.074 10.4519C106.074 10.2009 106.053 9.94991 106.003 9.69893C105.591 7.78147 103.611 6.31577 101.722 6.51655C99.41 6.75749 97.8622 8.3537 97.8421 10.5221C97.832 12.1585 97.8421 13.8049 97.8421 15.4413" fill="white"/>
<path d="M-0.000312412 22.4179V10.4614C0.0298394 5.48199 3.55761 1.2154 8.44221 0.25165C14.5731 -0.942996 20.2617 3.11278 21.1462 9.3169C21.1964 9.7285 21.2065 10.1301 21.1964 10.5417C21.1964 18.8138 21.1964 27.076 21.2065 35.3481C21.2065 35.8501 21.106 36.0007 20.5733 35.9906C18.7742 35.9505 16.9752 35.9605 15.1761 35.9906C14.764 35.9906 14.6434 35.8802 14.6434 35.4686C14.6635 33.0894 14.6434 30.7001 14.6635 28.3108C14.6635 27.8189 14.5228 27.6984 14.0404 27.7084C11.6886 27.7385 9.34676 27.7385 6.99492 27.7084C6.49239 27.7084 6.39188 27.869 6.39188 28.3308C6.41198 30.68 6.39188 33.0191 6.41198 35.3682C6.41198 35.83 6.33158 36.0107 5.819 35.9906C4.06014 35.9605 2.30128 35.9605 0.542421 35.9906C0.0901432 35.9906 -0.010363 35.8601 -0.000312412 35.4284C0.00973821 31.0916 -0.000312412 26.7547 -0.000312412 22.4078M14.6535 15.4006C14.6535 13.8144 14.6535 12.2383 14.6535 10.6521C14.6736 10.2405 14.6334 9.82889 14.5429 9.42733C14.0404 7.60023 12.2815 6.45578 10.1508 6.57625C8.33165 6.68667 6.79391 8.11222 6.51249 9.98952C6.45219 10.3911 6.42203 10.8027 6.41198 11.2143C6.41198 14.3565 6.41198 17.5088 6.40193 20.651C6.40193 21.0726 6.48234 21.2232 6.94467 21.2232C9.32666 21.1931 11.7187 21.2031 14.1007 21.2232C14.5932 21.2232 14.6736 21.0525 14.6635 20.6209C14.6434 18.8841 14.6635 17.1474 14.6635 15.4106" fill="white"/>
<path d="M24.3821 18.0205C24.3821 12.238 24.3821 6.45554 24.3821 0.663016C24.3821 0.171103 24.4525 -0.00959965 25.0053 0.000439386C26.8043 0.0405955 28.6034 0.0305565 30.4024 0.000439386C30.8447 0.000439386 30.9452 0.110869 30.9452 0.552587C30.9251 5.10027 30.9452 9.658 30.9251 14.2157C30.9251 14.6474 30.9954 14.8281 31.4879 14.798C32.895 14.7177 34.3121 14.9285 35.7092 14.6876C37.7997 14.3261 39.1565 12.7199 39.1766 10.5916C39.1967 7.2687 39.1967 3.94578 39.1766 0.62286C39.1766 0.151025 39.2771 -0.00959965 39.7797 0.000439386C41.5988 0.0305565 43.418 0.0305565 45.2372 0.000439386C45.6593 0.000439386 45.7497 0.110869 45.7497 0.522469C45.7296 3.55426 45.6894 6.58605 45.7497 9.6078C45.81 12.5794 45.0663 15.2497 43.1165 17.5286C42.825 17.8699 42.8049 18.1109 43.1165 18.4622C45.0261 20.6909 45.7799 23.3111 45.7497 26.2023C45.7196 29.2743 45.7296 32.3362 45.7497 35.4081C45.7497 35.88 45.6191 35.9904 45.1668 35.9904C43.3677 35.9603 41.5687 35.9603 39.7696 35.9904C39.3173 35.9904 39.1766 35.89 39.1766 35.4182C39.1967 32.0551 39.1967 28.692 39.1766 25.339C39.1565 23.5219 37.9404 21.9357 36.1815 21.4438C35.88 21.3736 35.5584 21.3434 35.2468 21.3535C34.0006 21.3535 32.7442 21.3736 31.4879 21.3434C31.0055 21.3234 30.9251 21.494 30.9251 21.9257C30.9452 26.4031 30.9251 30.8805 30.9552 35.3479C30.9552 35.9101 30.7844 36.0105 30.2718 36.0004C28.5129 35.9703 26.7541 35.9703 24.9852 36.0004C24.4927 36.0004 24.3721 35.8599 24.3721 35.378C24.3821 29.5955 24.3922 23.813 24.3721 18.0205" fill="white"/>
<path d="M70.1226 18.0304C70.1226 23.8129 70.1226 29.5954 70.1226 35.3779C70.1226 35.8497 70.012 36.0104 69.5095 36.0003C67.7707 35.9702 66.0219 35.9602 64.2832 36.0003C63.7304 36.0104 63.66 35.8196 63.66 35.3377C63.6801 30.8804 63.66 26.4231 63.6801 21.9758C63.6801 21.4738 63.5897 21.3232 63.057 21.3333C60.6851 21.3734 58.3232 21.3734 55.9512 21.3333C55.3884 21.3333 55.2979 21.504 55.2979 22.0159C55.318 26.4733 55.2979 30.9306 55.318 35.3879C55.318 35.8598 55.2175 36.0204 54.715 36.0104C52.9561 35.9802 51.1973 35.9903 49.4284 36.0104C49.0163 36.0104 48.8555 35.9401 48.8555 35.4783C48.8655 23.833 48.8655 12.1877 48.8555 0.542439C48.8555 0.11076 49.0062 0.040487 49.3882 0.040487C51.1671 0.0605651 52.9461 0.0706042 54.725 0.040487C55.1874 0.040487 55.308 0.160956 55.308 0.622751C55.2879 5.1604 55.308 9.688 55.2879 14.2257C55.2879 14.6975 55.3783 14.8481 55.8809 14.838C58.2829 14.8079 60.6951 14.8079 63.0972 14.838C63.5796 14.838 63.66 14.6874 63.66 14.2558C63.6399 9.71812 63.66 5.19051 63.6399 0.652868C63.6399 0.170995 63.7505 0.030448 64.243 0.040487C65.9817 0.0706042 67.7205 0.0806432 69.4592 0.040487C70.012 0.020409 70.0824 0.211151 70.0824 0.703064C70.0623 6.48555 70.0623 12.268 70.0824 18.0606" fill="white"/>
<path d="M115.823 18.0202C115.823 12.2378 115.823 6.45527 115.812 0.662742C115.812 0.16079 115.923 0.000165234 116.446 0.0102043C118.144 0.0503604 119.853 0.0503604 121.551 0.0102043C122.124 0.000165234 122.215 0.200946 122.215 0.702898C122.195 5.18031 122.215 9.65772 122.195 14.1351C122.195 14.6772 122.335 14.8278 122.868 14.8078C124.004 14.7676 125.139 14.8077 126.275 14.7977C128.778 14.7776 130.597 12.9706 130.607 10.4508C130.617 7.18812 130.617 3.92543 130.607 0.662742C130.607 0.140712 130.738 0.0102043 131.25 0.0202433C132.989 0.0503604 134.738 0.0403214 136.477 0.0202433C136.879 0.0202433 137.009 0.130673 137.009 0.542274C136.989 4.13625 137.039 7.73023 136.979 11.3342C136.939 13.6332 136.095 15.6811 134.537 17.3978C134.115 17.8596 134.115 18.1508 134.507 18.6025C136.296 20.6304 137.06 23.0197 137.009 25.7202C136.959 28.9226 136.979 32.1251 137.009 35.3376C137.009 35.8998 136.838 36.0202 136.316 36.0102C134.637 35.9801 132.949 35.97 131.27 36.0102C130.708 36.0202 130.607 35.8395 130.607 35.3175C130.627 32.1151 130.617 28.9026 130.617 25.7001C130.617 23.2104 129.049 21.5038 126.557 21.2528C125.26 21.1223 123.974 21.2227 122.687 21.2227C122.215 21.2227 122.215 21.5239 122.215 21.8451V26.7141C122.215 29.6053 122.205 32.4965 122.225 35.3878C122.225 35.8897 122.074 36.0102 121.592 36.0002C119.873 35.9701 118.144 35.9701 116.426 36.0002C115.933 36.0002 115.812 35.8596 115.812 35.3777C115.833 29.5953 115.823 23.8027 115.823 18.0202Z" fill="white"/>
<path d="M79.8623 13.1813C79.8623 17.1467 79.9125 21.1121 79.8422 25.0775C79.7919 27.4367 81.199 29.4445 84.174 29.565C85.3097 29.6052 86.4454 29.5851 87.5812 29.565C87.9631 29.565 88.134 29.6152 88.1239 30.0569C88.1038 31.874 88.1139 33.691 88.1239 35.5081C88.1239 35.7892 88.1239 35.99 87.7319 35.99C86.1138 35.9498 84.4856 36.0703 82.8674 35.9297C79.7517 35.6687 77.3496 34.1227 75.4702 31.6933C74.0832 29.8963 73.3394 27.6877 73.3495 25.4189C73.3093 17.1166 73.3294 8.8143 73.3193 0.512016C73.3193 0.130533 73.4299 0.0100642 73.8118 0.0201032C75.6511 0.0401813 77.4903 0.0401813 79.3296 0.0201032C79.7819 0.0201032 79.8824 0.150611 79.8824 0.582289C79.8623 4.77861 79.8824 8.98497 79.8824 13.1813" fill="white"/>
</g>
<rect x="153" width="2" height="36" fill="white"/>
<g clip-path="url(#clip1_11250_260266)">
<path d="M220.71 35.8938C214.878 35.8938 210.121 31.1489 210.121 25.3062V0H216.567V25.318C216.567 27.6079 218.42 29.461 220.71 29.461C223 29.461 224.853 27.6079 224.853 25.318V0H231.299V25.318C231.299 31.1489 226.553 35.9056 220.71 35.9056" fill="white"/>
<path d="M284.22 0C290.051 0 294.809 4.74492 294.809 10.5875V35.9056H288.363V10.5875C288.363 8.29771 286.51 6.44459 284.22 6.44459C281.93 6.44459 280.076 8.29771 280.076 10.5875V35.9056H273.631V10.5875C273.631 4.75672 278.376 0 284.22 0Z" fill="white"/>
<path d="M206.898 10.5875C206.898 4.74492 202.153 0 196.321 0H171V6.44459H196.321C198.611 6.44459 200.465 8.29771 200.465 10.5875C200.465 12.8774 198.611 14.7305 196.321 14.7305H171V21.1751H196.321C198.611 21.1751 200.465 23.0282 200.465 25.318C200.465 27.6079 198.611 29.461 196.321 29.461H171V35.9056H196.321C202.165 35.9056 206.91 31.1607 206.91 25.318C206.91 22.4616 205.765 19.8649 203.912 17.9528C205.765 16.0407 206.91 13.4557 206.91 10.5875" fill="white"/>
<path d="M259.831 0C256.974 0 254.377 1.14492 252.465 2.99803C250.552 1.14492 247.967 0 245.099 0C239.255 0 234.51 4.74492 234.51 10.5875V35.9056H240.955V10.5875C240.955 8.29771 242.809 6.44459 245.099 6.44459C247.389 6.44459 249.242 8.29771 249.242 10.5875V35.9056H255.688V10.5875C255.688 8.29771 257.541 6.44459 259.831 6.44459C262.121 6.44459 263.975 8.29771 263.975 10.5875V35.9056H270.42V10.5875C270.42 4.75672 265.674 0 259.831 0Z" fill="white"/>
<path d="M305.303 20.7621C305.598 20.7621 305.858 20.7148 306.094 20.6204C306.33 20.526 306.519 20.3844 306.684 20.2073C306.849 20.0303 306.967 19.806 307.05 19.5463C307.133 19.2866 307.18 18.9916 307.18 18.6611V13.0781H309.364V18.6611C309.364 19.2394 309.269 19.7706 309.08 20.2545C308.892 20.7385 308.62 21.1516 308.278 21.5057C307.924 21.8598 307.499 22.1312 307.003 22.3201C306.507 22.5089 305.94 22.6152 305.315 22.6152C304.689 22.6152 304.122 22.5207 303.615 22.3201C303.119 22.1312 302.694 21.8598 302.34 21.5057C301.986 21.1516 301.726 20.7385 301.537 20.2545C301.348 19.7706 301.254 19.2394 301.254 18.6611V13.0781H303.438V18.6611C303.438 18.9916 303.485 19.2866 303.568 19.5463C303.65 19.806 303.768 20.0303 303.934 20.2073C304.099 20.3962 304.288 20.526 304.524 20.6322C304.76 20.7266 305.02 20.7739 305.315 20.7739" fill="white"/>
<path d="M312.173 13.0783C312.232 13.0783 312.291 13.1019 312.35 13.1255C312.397 13.1491 312.456 13.1845 312.504 13.2199C312.551 13.2671 312.61 13.3262 312.669 13.397L317.155 19.0626C317.143 18.8855 317.119 18.7085 317.119 18.5314C317.119 18.3662 317.107 18.2009 317.107 18.0475V13.0547H319.032V22.4855H317.887C317.721 22.4855 317.58 22.4619 317.462 22.4029C317.344 22.3557 317.237 22.2612 317.131 22.1196L312.681 16.5012C312.692 16.6665 312.704 16.8199 312.716 16.9852C312.716 17.1386 312.728 17.2921 312.728 17.4337V22.4855H310.804V13.0547H311.961C312.055 13.0547 312.138 13.0547 312.197 13.0665" fill="white"/>
<path d="M327.425 13.0664V14.8015H324.769V22.4972H322.585V14.8015H319.929V13.0664H327.425Z" fill="white"/>
<path d="M332.253 20.7621C332.548 20.7621 332.808 20.7148 333.044 20.6204C333.28 20.526 333.469 20.3844 333.634 20.2073C333.8 20.0303 333.918 19.806 334 19.5463C334.083 19.2866 334.13 18.9916 334.13 18.6611V13.0781H336.314V18.6611C336.314 19.2394 336.22 19.7706 336.031 20.2545C335.842 20.7385 335.57 21.1516 335.228 21.5057C334.874 21.8598 334.449 22.1312 333.953 22.3201C333.457 22.5089 332.891 22.6152 332.265 22.6152C331.639 22.6152 331.073 22.5207 330.565 22.3201C330.069 22.1312 329.644 21.8598 329.29 21.5057C328.936 21.1516 328.676 20.7385 328.487 20.2545C328.299 19.7706 328.204 19.2394 328.204 18.6611V13.0781H330.388V18.6611C330.388 18.9916 330.435 19.2866 330.518 19.5463C330.6 19.806 330.719 20.0303 330.884 20.2073C331.049 20.3962 331.238 20.526 331.474 20.6322C331.71 20.7266 331.97 20.7739 332.265 20.7739" fill="white"/>
<path d="M339.914 16.879H340.268C340.587 16.879 340.823 16.7728 340.965 16.5721L343.09 13.4915C343.208 13.3262 343.338 13.2082 343.491 13.1492C343.645 13.0902 343.822 13.0548 344.034 13.0548H345.935L343.137 16.8672C343.043 17.0089 342.936 17.1151 342.83 17.2095C342.724 17.304 342.618 17.3748 342.5 17.4338C342.665 17.4928 342.818 17.5754 342.948 17.6817C343.09 17.7879 343.208 17.9295 343.326 18.1066L346.171 22.4856H344.211C344.081 22.4856 343.975 22.4856 343.893 22.462C343.798 22.4502 343.727 22.4148 343.668 22.3794C343.609 22.344 343.55 22.3085 343.503 22.2495C343.456 22.2023 343.409 22.1433 343.361 22.0725L341.225 18.7912C341.142 18.6731 341.048 18.5905 340.93 18.5315C340.812 18.4843 340.646 18.4607 340.446 18.4607H339.914V22.4738H337.73V13.043H339.914V16.8672V16.879Z" fill="white"/>
<path d="M301.254 35.8937H303.45V26.4629H301.254V35.8937Z" fill="white"/>
<path d="M306.59 26.4747C306.649 26.4747 306.708 26.4983 306.767 26.5219C306.814 26.5455 306.873 26.5809 306.921 26.6281C306.968 26.6753 307.027 26.7344 307.086 26.8052L311.572 32.4708C311.56 32.2937 311.536 32.1167 311.536 31.9396C311.536 31.7744 311.525 31.6091 311.525 31.4557V26.4629H313.449V35.8937H312.304C312.138 35.8937 311.997 35.8701 311.879 35.8111C311.761 35.7639 311.654 35.6694 311.536 35.5278L307.086 29.9094C307.098 30.0747 307.11 30.2399 307.121 30.3934C307.121 30.5468 307.133 30.7003 307.133 30.8419V35.8937H305.209V26.4629H306.366C306.46 26.4629 306.543 26.4629 306.602 26.4747" fill="white"/>
<path d="M321.311 31.1724C321.311 30.7003 321.252 30.2872 321.134 29.9094C321.016 29.5317 320.838 29.2131 320.614 28.9534C320.39 28.6937 320.107 28.4931 319.788 28.3514C319.457 28.2098 319.091 28.139 318.666 28.139H317.203V34.2058H318.666C319.08 34.2058 319.457 34.135 319.788 33.9934C320.118 33.8517 320.39 33.6511 320.614 33.3914C320.838 33.1317 321.016 32.8131 321.134 32.4353C321.252 32.0576 321.311 31.6327 321.311 31.1606M323.554 31.1724C323.554 31.857 323.436 32.4826 323.199 33.0609C322.963 33.6393 322.633 34.135 322.208 34.5599C321.783 34.9849 321.263 35.3035 320.661 35.5396C320.059 35.7757 319.386 35.8937 318.655 35.8937H314.995V26.4629H318.655C319.386 26.4629 320.059 26.5809 320.661 26.817C321.263 27.0531 321.783 27.3835 322.208 27.7967C322.633 28.2098 322.963 28.7173 323.199 29.2839C323.436 29.8504 323.554 30.4878 323.554 31.1606" fill="white"/>
<path d="M331.663 31.1731C331.663 30.7009 331.604 30.2878 331.486 29.9101C331.368 29.5324 331.191 29.2255 330.967 28.9659C330.743 28.7062 330.459 28.5055 330.141 28.3757C329.81 28.2341 329.444 28.1632 329.019 28.1632C328.594 28.1632 328.216 28.2341 327.886 28.3757C327.555 28.5173 327.272 28.718 327.048 28.9659C326.824 29.2255 326.646 29.5442 326.528 29.9101C326.41 30.2878 326.351 30.7009 326.351 31.1731C326.351 31.6452 326.41 32.0701 326.528 32.436C326.646 32.8137 326.824 33.1206 327.048 33.3803C327.272 33.64 327.555 33.8406 327.886 33.9705C328.216 34.1121 328.594 34.1711 329.019 34.1711C329.444 34.1711 329.81 34.1003 330.141 33.9705C330.471 33.8288 330.743 33.64 330.967 33.3803C331.191 33.1206 331.368 32.8019 331.486 32.436C331.604 32.0583 331.663 31.6452 331.663 31.1731ZM333.906 31.1731C333.906 31.8577 333.788 32.495 333.552 33.0734C333.316 33.6636 332.986 34.1711 332.561 34.6078C332.136 35.0445 331.616 35.3868 331.014 35.6229C330.412 35.8708 329.739 35.9888 329.007 35.9888C328.275 35.9888 327.603 35.8708 327.001 35.6229C326.399 35.375 325.879 35.0327 325.454 34.6078C325.029 34.1711 324.687 33.6636 324.463 33.0734C324.226 32.4832 324.108 31.8577 324.108 31.1731C324.108 30.4885 324.226 29.8511 324.463 29.2727C324.699 28.6826 325.029 28.175 325.454 27.7501C325.879 27.3134 326.399 26.9829 327.001 26.735C327.603 26.4872 328.275 26.3691 329.007 26.3691C329.739 26.3691 330.412 26.499 331.014 26.7468C331.616 26.9947 332.136 27.337 332.561 27.7619C332.986 28.1986 333.316 28.7062 333.552 29.2845C333.788 29.8747 333.906 30.5003 333.906 31.1849" fill="white"/>
<path d="M336.35 26.4747C336.421 26.4747 336.468 26.4983 336.527 26.5219C336.574 26.5455 336.633 26.5809 336.68 26.6281C336.728 26.6753 336.787 26.7344 336.846 26.8052L341.332 32.4708C341.32 32.2937 341.296 32.1167 341.296 31.9396C341.296 31.7744 341.284 31.6091 341.284 31.4557V26.4629H343.208V35.8937H342.063C341.898 35.8937 341.757 35.8701 341.638 35.8111C341.52 35.7639 341.414 35.6694 341.296 35.5278L336.846 29.9094C336.858 30.0747 336.869 30.2399 336.881 30.3934C336.881 30.5468 336.893 30.7003 336.893 30.8419V35.8937H334.969V26.4629H336.126C336.22 26.4629 336.303 26.4629 336.362 26.4747" fill="white"/>
<path d="M350.823 26.4629V28.1508H346.951V30.3462H349.914V31.9632H346.951V34.2058H350.823V35.8937H344.755V26.4629H350.823Z" fill="white"/>
<path d="M357.315 28.3876C357.256 28.4938 357.185 28.5646 357.114 28.6237C357.043 28.6709 356.949 28.7063 356.843 28.7063C356.748 28.7063 356.642 28.6709 356.524 28.6118C356.406 28.5528 356.276 28.482 356.134 28.3994C355.993 28.3168 355.827 28.2459 355.639 28.1869C355.45 28.1279 355.237 28.0925 355.001 28.0925C354.588 28.0925 354.281 28.1751 354.08 28.3522C353.88 28.5292 353.773 28.7653 353.773 29.0604C353.773 29.2492 353.832 29.4027 353.95 29.5325C354.069 29.6623 354.234 29.7686 354.423 29.8512C354.623 29.9456 354.848 30.0282 355.096 30.0991C355.343 30.1699 355.603 30.2643 355.875 30.3469C356.134 30.4414 356.394 30.5476 356.654 30.6774C356.902 30.8073 357.126 30.9607 357.327 31.1614C357.527 31.3502 357.681 31.5981 357.799 31.8696C357.917 32.1528 357.976 32.4833 357.976 32.8728C357.976 33.3096 357.905 33.7109 357.752 34.1004C357.598 34.4781 357.386 34.8086 357.091 35.0918C356.807 35.3751 356.453 35.5994 356.028 35.7528C355.603 35.9181 355.131 36.0007 354.6 36.0007C354.305 36.0007 354.01 35.9653 353.703 35.9063C353.396 35.8473 353.101 35.7646 352.817 35.6466C352.534 35.5404 352.262 35.4105 352.015 35.2571C351.767 35.1037 351.542 34.9384 351.365 34.7496L352.015 33.7227C352.062 33.64 352.133 33.581 352.215 33.5338C352.298 33.4866 352.392 33.463 352.499 33.463C352.628 33.463 352.758 33.4984 352.888 33.581C353.018 33.6637 353.171 33.7581 353.337 33.8525C353.502 33.9469 353.691 34.0414 353.915 34.124C354.128 34.2066 354.387 34.242 354.682 34.242C355.084 34.242 355.391 34.1594 355.603 33.9823C355.827 33.8053 355.934 33.5338 355.934 33.1561C355.934 32.9318 355.875 32.7548 355.757 32.6132C355.639 32.4715 355.473 32.3653 355.284 32.2709C355.084 32.1764 354.859 32.1056 354.612 32.0348C354.364 31.964 354.104 31.8932 353.844 31.8105C353.585 31.7279 353.325 31.6217 353.077 31.5037C352.829 31.3856 352.605 31.2204 352.404 31.0197C352.203 30.8191 352.05 30.5712 351.932 30.2643C351.814 29.9692 351.755 29.5915 351.755 29.1548C351.755 28.8007 351.826 28.4584 351.967 28.1161C352.109 27.7856 352.321 27.4787 352.593 27.2191C352.864 26.9594 353.207 26.7469 353.608 26.5935C354.01 26.44 354.47 26.3574 354.989 26.3574C355.273 26.3574 355.556 26.381 355.839 26.4282C356.111 26.4755 356.37 26.5463 356.618 26.6289C356.866 26.7233 357.091 26.8177 357.303 26.9476C357.516 27.0656 357.704 27.2073 357.881 27.3607L357.338 28.3758L357.315 28.3876Z" fill="white"/>
<path d="M359.274 35.8937H361.47V26.4629H359.274V35.8937Z" fill="white"/>
<path d="M365.944 32.2937H368.518L367.656 29.7088C367.597 29.5435 367.538 29.3547 367.455 29.1304C367.385 28.9062 367.302 28.6701 367.231 28.4104C367.16 28.6701 367.089 28.918 367.019 29.1422C366.948 29.3665 366.877 29.5554 366.806 29.7206L365.933 32.2937H365.944ZM372 35.8937H370.3C370.112 35.8937 369.958 35.8465 369.828 35.7639C369.71 35.6694 369.616 35.5632 369.568 35.4216L369.014 33.7809H365.425L364.87 35.4216C364.823 35.5396 364.74 35.6458 364.622 35.7521C364.492 35.8465 364.339 35.8937 364.162 35.8937H362.45L366.098 26.4629H368.341L371.988 35.8937H372Z" fill="white"/>
</g>
<defs>
<clipPath id="clip0_11250_260266">
<rect width="137" height="36" fill="white"/>
</clipPath>
<clipPath id="clip1_11250_260266">
<rect width="201" height="36" fill="white" transform="translate(171)"/>
</clipPath>
</defs>
</svg>
