<svg width="251" height="56" viewBox="0 0 251 56" fill="none" xmlns="http://www.w3.org/2000/svg">
<path d="M66.5703 24.5708L71.3575 2.80078L58.0801 24.5428C60.9101 24.3748 63.7543 24.3748 66.5703 24.5708Z" fill="url(#paint0_linear_11250_260547)"/>
<path d="M58.0797 24.5428L71.3571 2.80078L11.2217 41.1608C19.5288 36.2188 28.1317 31.8088 37.2836 28.7148C43.9716 26.4608 51.0257 24.9628 58.0797 24.5428Z" fill="url(#paint1_linear_11250_260547)"/>
<path d="M58.08 24.543L51.561 35.225L61.5578 47.405L66.5843 24.557C63.7683 24.361 60.9242 24.361 58.0941 24.529L58.08 24.543Z" fill="url(#paint2_linear_11250_260547)"/>
<path d="M51.561 35.2386L58.08 24.5566C51.0259 24.9766 43.9719 26.4746 37.2839 28.7286C28.1319 31.8086 19.5291 36.2186 11.2219 41.1746L1.4082 47.4186L51.561 35.2386Z" fill="url(#paint3_linear_11250_260547)"/>
<path d="M58.0799 24.5996C45.1545 25.7616 32.8627 30.3956 21.106 35.6736L25.4144 33.4196C35.6083 28.5896 46.6892 24.7816 58.0799 24.5996Z" fill="#F99D1C"/>
<path d="M90.2529 30.1569C90.7456 30.8009 90.9991 31.5849 90.9991 32.4949C90.9991 33.8249 90.4641 34.8609 89.3799 35.5749C88.2957 36.3029 86.7469 36.6669 84.7054 36.6669H76.4404V21.4629H84.2689C86.226 21.4629 87.7044 21.8269 88.7322 22.5409C89.746 23.2549 90.2669 24.2209 90.2669 25.4389C90.2669 26.1669 90.0839 26.8109 89.7319 27.3849C89.3799 27.9589 88.873 28.4069 88.2113 28.7429C89.0842 29.0509 89.7741 29.5269 90.2669 30.1709L90.2529 30.1569ZM80.7207 24.5569V27.4969H83.6916C85.1418 27.4969 85.874 27.0069 85.874 26.0129C85.874 25.0189 85.1418 24.5569 83.6916 24.5569H80.7207ZM86.6202 32.0189C86.6202 30.9969 85.8599 30.4789 84.3534 30.4789H80.7207V33.5589H84.3534C85.874 33.5589 86.6202 33.0409 86.6202 32.0189Z" fill="white"/>
<path d="M103.276 33.7129H96.8137L95.6169 36.6669H91.1958L97.9542 21.4629H102.22L108.993 36.6669H104.487L103.29 33.7129H103.276ZM102.009 30.5349L100.038 25.6629L98.0668 30.5349H101.995H102.009Z" fill="white"/>
<path d="M111.781 24.8652H107.078V21.4492H120.778V24.8652H116.103V36.6672H111.781V24.8652Z" fill="white"/>
<path d="M122.228 21.4492H126.551V36.6532H122.228V21.4492Z" fill="white"/>
<path d="M132.929 35.9526C131.648 35.2806 130.648 34.3426 129.93 33.1386C129.198 31.9346 128.832 30.5766 128.832 29.0506C128.832 27.5246 129.198 26.1666 129.93 24.9626C130.662 23.7586 131.662 22.8206 132.929 22.1486C134.196 21.4766 135.646 21.1406 137.251 21.1406C138.645 21.1406 139.912 21.3926 141.025 21.8826C142.151 22.3726 143.08 23.0866 143.827 24.0106L141.067 26.4886C140.081 25.2986 138.871 24.7106 137.463 24.7106C136.632 24.7106 135.886 24.8926 135.238 25.2566C134.59 25.6206 134.083 26.1246 133.731 26.7826C133.379 27.4406 133.196 28.1966 133.196 29.0506C133.196 29.9046 133.379 30.6606 133.731 31.3186C134.083 31.9766 134.59 32.4946 135.238 32.8446C135.886 33.2086 136.632 33.3906 137.463 33.3906C138.871 33.3906 140.081 32.8026 141.067 31.6126L143.827 34.0906C143.08 35.0146 142.151 35.7286 141.025 36.2186C139.898 36.7086 138.645 36.9606 137.251 36.9606C135.646 36.9606 134.21 36.6246 132.929 35.9526Z" fill="white"/>
<path d="M82.1708 47.2369C82.4665 47.6009 82.6073 48.0349 82.6073 48.5109C82.6073 48.9449 82.4946 49.3229 82.2834 49.6449C82.0722 49.9669 81.7625 50.2329 81.3542 50.4149C80.9458 50.5969 80.4812 50.6949 79.918 50.6949H76.4121V42.6309H79.7631C80.3123 42.6309 80.791 42.7149 81.1852 42.8969C81.5794 43.0789 81.8892 43.3169 82.0863 43.6389C82.2975 43.9609 82.3961 44.3109 82.3961 44.7169C82.3961 45.1929 82.2694 45.5849 82.0159 45.8929C81.7625 46.2009 81.4246 46.4389 81.0162 46.5649C81.4668 46.6489 81.847 46.8729 82.1426 47.2509L82.1708 47.2369ZM78.0735 45.9489H79.566C79.9602 45.9489 80.2559 45.8649 80.4671 45.6829C80.6783 45.5149 80.7769 45.2629 80.7769 44.9409C80.7769 44.6189 80.6783 44.3669 80.4671 44.1849C80.2559 44.0029 79.9602 43.9189 79.566 43.9189H78.0735V45.9349V45.9489ZM80.6361 49.0989C80.8614 48.9169 80.974 48.6509 80.974 48.3149C80.974 47.9789 80.8614 47.6989 80.622 47.5029C80.3967 47.3069 80.0729 47.2089 79.6787 47.2089H78.0735V49.3789H79.7068C80.1011 49.3789 80.4108 49.2809 80.6361 49.0989Z" fill="white"/>
<path d="M89.8723 44.2832V50.6812H88.239V49.8692C88.0278 50.1492 87.7603 50.3592 87.4223 50.5272C87.0844 50.6812 86.7183 50.7652 86.3241 50.7652C85.8172 50.7652 85.3808 50.6532 84.9865 50.4432C84.6064 50.2332 84.2966 49.9252 84.0713 49.5052C83.846 49.0992 83.7334 48.5952 83.7334 48.0352V44.2832H85.3667V47.8112C85.3667 48.3152 85.4934 48.7072 85.7468 48.9872C86.0003 49.2532 86.3523 49.3932 86.7887 49.3932C87.2252 49.3932 87.5913 49.2532 87.8447 48.9872C88.0982 48.7072 88.2249 48.3152 88.2249 47.8112V44.2832H89.8582H89.8723Z" fill="white"/>
<path d="M95.1243 50.681L92.9419 47.951V50.681H91.3086V42.127H92.9419V46.999L95.1102 44.283H97.2222L94.3921 47.503L97.2503 50.695H95.1383L95.1243 50.681Z" fill="white"/>
<path d="M98.0668 43.2467C97.8696 43.0647 97.7852 42.8407 97.7852 42.5747C97.7852 42.3087 97.8837 42.0847 98.0668 41.9027C98.2498 41.7207 98.4892 41.6367 98.7848 41.6367C99.0805 41.6367 99.3058 41.7347 99.5029 41.9027C99.7 42.0847 99.7845 42.3087 99.7845 42.5747C99.7845 42.8407 99.6859 43.0647 99.5029 43.2467C99.3058 43.4287 99.0805 43.5127 98.7848 43.5127C98.4892 43.5127 98.2639 43.4287 98.0668 43.2467ZM99.5733 44.2827V50.6807H97.94V44.2827H99.5733Z" fill="white"/>
<path d="M102.882 45.6135V48.7075C102.882 48.9175 102.939 49.0855 103.037 49.1695C103.136 49.2675 103.319 49.3095 103.572 49.3095H104.333V50.6675H103.305C101.939 50.6675 101.249 50.0095 101.249 48.6795V45.5995H100.489V44.2695H101.249V42.6875H102.882V44.2695H104.318V45.5995H102.882V45.6135Z" fill="white"/>
<path d="M113.006 49.1552H109.768L109.232 50.6952H107.529L110.443 42.6172H112.344L115.259 50.6952H113.541L113.006 49.1552ZM112.555 47.8532L111.387 44.4792L110.218 47.8532H112.569H112.555Z" fill="white"/>
<path d="M117.033 50.5132C116.61 50.3172 116.286 50.0652 116.033 49.7432C115.779 49.4212 115.653 49.0572 115.639 48.6652H117.272C117.3 48.9172 117.427 49.1132 117.638 49.2812C117.849 49.4492 118.117 49.5192 118.441 49.5192C118.764 49.5192 118.99 49.4632 119.173 49.3372C119.342 49.2112 119.44 49.0572 119.44 48.8612C119.44 48.6512 119.328 48.4972 119.116 48.3992C118.905 48.3012 118.567 48.1752 118.103 48.0632C117.624 47.9512 117.23 47.8252 116.92 47.6992C116.61 47.5732 116.357 47.3912 116.131 47.1392C115.906 46.8872 115.794 46.5372 115.794 46.1172C115.794 45.7672 115.892 45.4452 116.103 45.1512C116.315 44.8572 116.596 44.6332 116.99 44.4512C117.371 44.2832 117.821 44.1992 118.342 44.1992C119.102 44.1992 119.722 44.3952 120.172 44.7732C120.623 45.1512 120.876 45.6692 120.933 46.3132H119.37C119.342 46.0612 119.243 45.8512 119.046 45.7112C118.849 45.5572 118.595 45.4872 118.286 45.4872C117.99 45.4872 117.765 45.5432 117.61 45.6552C117.455 45.7672 117.371 45.9072 117.371 46.1032C117.371 46.3132 117.483 46.4812 117.694 46.5932C117.906 46.7052 118.243 46.8172 118.708 46.9292C119.173 47.0412 119.553 47.1672 119.863 47.2932C120.158 47.4192 120.426 47.6012 120.651 47.8672C120.876 48.1192 120.989 48.4692 120.989 48.8892C120.989 49.2532 120.89 49.5892 120.679 49.8832C120.468 50.1772 120.186 50.4012 119.792 50.5692C119.412 50.7372 118.962 50.8212 118.455 50.8212C117.948 50.8212 117.455 50.7232 117.033 50.5412V50.5132Z" fill="white"/>
<path d="M125.241 50.5119C124.833 50.7079 124.41 50.8059 123.932 50.8059C123.523 50.8059 123.171 50.7219 122.833 50.5679C122.495 50.4139 122.256 50.1759 122.073 49.8959C121.89 49.6159 121.792 49.2799 121.792 48.9159C121.792 48.3279 122.017 47.8379 122.453 47.4599C122.904 47.0819 123.566 46.8999 124.453 46.8999H126.086C126.072 46.4939 125.959 46.1719 125.734 45.9199C125.509 45.6819 125.213 45.5559 124.819 45.5559C124.481 45.5559 124.199 45.6399 123.974 45.8219C123.749 46.0039 123.608 46.2559 123.537 46.5779H121.904C121.989 46.1159 122.144 45.6959 122.411 45.3319C122.664 44.9679 123.016 44.6739 123.439 44.4779C123.861 44.2679 124.34 44.1699 124.861 44.1699C125.382 44.1699 125.889 44.2819 126.325 44.5059C126.762 44.7299 127.1 45.0519 127.353 45.4719C127.607 45.8919 127.719 46.3819 127.719 46.9419V50.6939H126.072V49.7839C125.889 50.0779 125.607 50.3159 125.199 50.5119H125.241ZM125.213 49.3219C125.466 49.2099 125.692 49.0279 125.861 48.8039C126.03 48.5799 126.114 48.2999 126.114 47.9779V47.9359H124.565C124.199 47.9359 123.918 48.0059 123.735 48.1599C123.551 48.2999 123.467 48.4959 123.467 48.7339C123.467 48.9719 123.552 49.1539 123.72 49.2939C123.889 49.4339 124.115 49.5039 124.424 49.5039C124.692 49.5039 124.959 49.4479 125.227 49.3359L125.213 49.3219Z" fill="white"/>
<path d="M139.096 44.9135C139.575 45.3895 139.828 46.0615 139.828 46.9295V50.6815H138.195V47.1395C138.195 46.6355 138.068 46.2575 137.815 45.9915C137.561 45.7255 137.209 45.5995 136.773 45.5995C136.336 45.5995 135.984 45.7395 135.717 45.9915C135.463 46.2575 135.322 46.6355 135.322 47.1395V50.6815H133.689V47.1395C133.689 46.6355 133.562 46.2575 133.309 45.9915C133.056 45.7255 132.704 45.5995 132.267 45.5995C131.831 45.5995 131.464 45.7395 131.197 45.9915C130.944 46.2575 130.803 46.6355 130.803 47.1395V50.6815H129.169V44.2835H130.803V45.0535C131.014 44.7875 131.281 44.5775 131.605 44.4235C131.929 44.2695 132.295 44.1855 132.689 44.1855C133.196 44.1855 133.647 44.2975 134.041 44.5075C134.435 44.7175 134.745 45.0255 134.956 45.4175C135.167 45.0535 135.463 44.7455 135.871 44.5215C136.266 44.2975 136.702 44.1855 137.167 44.1855C137.955 44.1855 138.589 44.4235 139.082 44.9135H139.096Z" fill="white"/>
<path d="M149.642 47.2369C149.938 47.6009 150.078 48.0349 150.078 48.5109C150.078 48.9449 149.966 49.3229 149.755 49.6449C149.543 49.9669 149.234 50.2329 148.825 50.4149C148.417 50.5969 147.952 50.6949 147.389 50.6949H143.883V42.6309H147.234C147.783 42.6309 148.262 42.7149 148.656 42.8969C149.051 43.0789 149.36 43.3169 149.558 43.6389C149.769 43.9609 149.867 44.3109 149.867 44.7169C149.867 45.1929 149.741 45.5849 149.487 45.8929C149.234 46.2009 148.896 46.4389 148.487 46.5649C148.938 46.6489 149.318 46.8729 149.614 47.2509L149.642 47.2369ZM145.531 45.9489H147.023C147.417 45.9489 147.713 45.8649 147.924 45.6829C148.135 45.5149 148.234 45.2629 148.234 44.9409C148.234 44.6189 148.135 44.3669 147.924 44.1849C147.713 44.0029 147.417 43.9189 147.023 43.9189H145.531V45.9349V45.9489ZM148.107 49.0989C148.333 48.9169 148.445 48.6509 148.445 48.3149C148.445 47.9789 148.333 47.6989 148.093 47.5029C147.868 47.3069 147.544 47.2089 147.15 47.2089H145.545V49.3789H147.178C147.572 49.3789 147.882 49.2809 148.107 49.0989Z" fill="white"/>
<path d="M157.343 44.2832V50.6812H155.71V49.8692C155.499 50.1492 155.231 50.3592 154.894 50.5272C154.556 50.6812 154.19 50.7652 153.795 50.7652C153.288 50.7652 152.852 50.6532 152.458 50.4432C152.078 50.2332 151.768 49.9252 151.543 49.5052C151.317 49.0992 151.205 48.5952 151.205 48.0352V44.2832H152.838V47.8112C152.838 48.3152 152.965 48.7072 153.218 48.9872C153.471 49.2532 153.823 49.3932 154.26 49.3932C154.696 49.3932 155.062 49.2532 155.316 48.9872C155.569 48.7072 155.696 48.3152 155.696 47.8112V44.2832H157.329H157.343Z" fill="white"/>
<path d="M159.836 50.5132C159.413 50.3172 159.09 50.0652 158.836 49.7432C158.583 49.4212 158.456 49.0572 158.442 48.6652H160.075C160.103 48.9172 160.23 49.1132 160.441 49.2812C160.652 49.4492 160.92 49.5192 161.244 49.5192C161.568 49.5192 161.793 49.4632 161.976 49.3372C162.145 49.2112 162.243 49.0572 162.243 48.8612C162.243 48.6512 162.131 48.4972 161.92 48.3992C161.708 48.3012 161.371 48.1752 160.906 48.0632C160.427 47.9512 160.033 47.8252 159.723 47.6992C159.413 47.5732 159.16 47.3912 158.935 47.1392C158.709 46.8872 158.597 46.5372 158.597 46.1172C158.597 45.7672 158.695 45.4452 158.907 45.1512C159.118 44.8572 159.399 44.6332 159.794 44.4512C160.174 44.2832 160.624 44.1992 161.145 44.1992C161.906 44.1992 162.525 44.3952 162.976 44.7732C163.426 45.1512 163.68 45.6692 163.736 46.3132H162.173C162.145 46.0612 162.046 45.8512 161.849 45.7112C161.652 45.5572 161.399 45.4872 161.089 45.4872C160.793 45.4872 160.568 45.5432 160.413 45.6552C160.258 45.7672 160.174 45.9072 160.174 46.1032C160.174 46.3132 160.286 46.4812 160.498 46.5932C160.709 46.7052 161.047 46.8172 161.511 46.9292C161.976 47.0412 162.356 47.1672 162.666 47.2932C162.962 47.4192 163.229 47.6012 163.454 47.8672C163.68 48.1192 163.792 48.4692 163.792 48.8892C163.792 49.2532 163.694 49.5892 163.483 49.8832C163.271 50.1772 162.99 50.4012 162.595 50.5692C162.215 50.7372 161.765 50.8212 161.258 50.8212C160.751 50.8212 160.258 50.7232 159.836 50.5412V50.5132Z" fill="white"/>
<path d="M165.059 43.2467C164.862 43.0647 164.778 42.8407 164.778 42.5747C164.778 42.3087 164.876 42.0847 165.059 41.9027C165.242 41.7207 165.482 41.6367 165.778 41.6367C166.073 41.6367 166.298 41.7347 166.496 41.9027C166.693 42.0847 166.777 42.3087 166.777 42.5747C166.777 42.8407 166.679 43.0647 166.496 43.2467C166.298 43.4287 166.073 43.5127 165.778 43.5127C165.482 43.5127 165.257 43.4287 165.059 43.2467ZM166.566 44.2827V50.6807H164.933V44.2827H166.566Z" fill="white"/>
<path d="M173.451 44.9135C173.93 45.3895 174.155 46.0615 174.155 46.9295V50.6815H172.522V47.1395C172.522 46.6355 172.395 46.2435 172.141 45.9635C171.888 45.6835 171.536 45.5575 171.1 45.5575C170.663 45.5575 170.297 45.6975 170.029 45.9635C169.776 46.2435 169.635 46.6215 169.635 47.1395V50.6815H168.002V44.2835H169.635V45.0815C169.846 44.8015 170.128 44.5915 170.466 44.4235C170.804 44.2695 171.17 44.1855 171.578 44.1855C172.339 44.1855 172.972 44.4235 173.437 44.9135H173.451Z" fill="white"/>
<path d="M181.519 47.9655H176.816C176.859 48.4275 177.013 48.7915 177.309 49.0575C177.591 49.3235 177.943 49.4495 178.365 49.4495C178.971 49.4495 179.393 49.1975 179.66 48.6795H181.42C181.237 49.2955 180.885 49.7995 180.35 50.2055C179.829 50.5975 179.182 50.8075 178.407 50.8075C177.788 50.8075 177.225 50.6675 176.732 50.4015C176.239 50.1355 175.859 49.7435 175.577 49.2395C175.296 48.7355 175.169 48.1615 175.169 47.5035C175.169 46.8455 175.31 46.2575 175.577 45.7535C175.845 45.2495 176.225 44.8715 176.718 44.5915C177.211 44.3115 177.774 44.1855 178.407 44.1855C179.041 44.1855 179.562 44.3115 180.055 44.5775C180.533 44.8435 180.914 45.2075 181.181 45.6975C181.449 46.1735 181.575 46.7335 181.575 47.3635C181.575 47.6015 181.561 47.7975 181.533 47.9935L181.519 47.9655ZM179.886 46.8875C179.886 46.4675 179.731 46.1455 179.435 45.8935C179.139 45.6415 178.787 45.5155 178.351 45.5155C177.943 45.5155 177.605 45.6415 177.337 45.8795C177.07 46.1175 176.887 46.4535 176.83 46.8875H179.886Z" fill="white"/>
<path d="M183.631 50.5132C183.208 50.3172 182.885 50.0652 182.631 49.7432C182.378 49.4212 182.251 49.0572 182.237 48.6652H183.87C183.898 48.9172 184.025 49.1132 184.236 49.2812C184.447 49.4492 184.715 49.5192 185.039 49.5192C185.363 49.5192 185.588 49.4632 185.771 49.3372C185.94 49.2112 186.038 49.0572 186.038 48.8612C186.038 48.6512 185.926 48.4972 185.715 48.3992C185.503 48.3012 185.165 48.1752 184.701 48.0632C184.222 47.9512 183.828 47.8252 183.518 47.6992C183.208 47.5732 182.955 47.3912 182.73 47.1392C182.504 46.8872 182.392 46.5372 182.392 46.1172C182.392 45.7672 182.49 45.4452 182.701 45.1512C182.913 44.8572 183.194 44.6332 183.589 44.4512C183.969 44.2832 184.419 44.1992 184.94 44.1992C185.701 44.1992 186.32 44.3952 186.771 44.7732C187.221 45.1512 187.475 45.6692 187.531 46.3132H185.968C185.94 46.0612 185.841 45.8512 185.644 45.7112C185.447 45.5572 185.194 45.4872 184.884 45.4872C184.588 45.4872 184.363 45.5432 184.208 45.6552C184.053 45.7672 183.969 45.9072 183.969 46.1032C183.969 46.3132 184.081 46.4812 184.292 46.5932C184.504 46.7052 184.842 46.8172 185.306 46.9292C185.771 47.0412 186.151 47.1672 186.461 47.2932C186.756 47.4192 187.024 47.6012 187.249 47.8672C187.475 48.1192 187.587 48.4692 187.587 48.8892C187.587 49.2532 187.489 49.5892 187.277 49.8832C187.066 50.1772 186.785 50.4012 186.39 50.5692C186.01 50.7372 185.56 50.8212 185.053 50.8212C184.546 50.8212 184.053 50.7232 183.631 50.5412V50.5132Z" fill="white"/>
<path d="M189.798 50.5132C189.375 50.3172 189.051 50.0652 188.798 49.7432C188.545 49.4212 188.418 49.0572 188.404 48.6652H190.037C190.065 48.9172 190.192 49.1132 190.403 49.2812C190.614 49.4492 190.882 49.5192 191.206 49.5192C191.53 49.5192 191.755 49.4632 191.938 49.3372C192.107 49.2112 192.205 49.0572 192.205 48.8612C192.205 48.6512 192.093 48.4972 191.882 48.3992C191.67 48.3012 191.332 48.1752 190.868 48.0632C190.389 47.9512 189.995 47.8252 189.685 47.6992C189.375 47.5732 189.122 47.3912 188.897 47.1392C188.671 46.8872 188.559 46.5372 188.559 46.1172C188.559 45.7672 188.657 45.4452 188.868 45.1512C189.08 44.8572 189.361 44.6332 189.755 44.4512C190.136 44.2832 190.586 44.1992 191.107 44.1992C191.867 44.1992 192.487 44.3952 192.938 44.7732C193.388 45.1512 193.642 45.6692 193.698 46.3132H192.135C192.107 46.0612 192.008 45.8512 191.811 45.7112C191.614 45.5572 191.361 45.4872 191.051 45.4872C190.755 45.4872 190.53 45.5432 190.375 45.6552C190.22 45.7672 190.136 45.9072 190.136 46.1032C190.136 46.3132 190.248 46.4812 190.459 46.5932C190.671 46.7052 191.009 46.8172 191.473 46.9292C191.938 47.0412 192.318 47.1672 192.628 47.2932C192.923 47.4192 193.191 47.6012 193.416 47.8672C193.642 48.1192 193.754 48.4692 193.754 48.8892C193.754 49.2532 193.656 49.5892 193.444 49.8832C193.233 50.1772 192.952 50.4012 192.557 50.5692C192.177 50.7372 191.727 50.8212 191.22 50.8212C190.713 50.8212 190.22 50.7232 189.798 50.5412V50.5132Z" fill="white"/>
<path d="M202.596 49.1552H199.358L198.823 50.6952H197.119L200.034 42.6172H201.934L204.849 50.6952H203.131L202.596 49.1552ZM202.16 47.8532L200.991 44.4792L199.822 47.8532H202.174H202.16Z" fill="white"/>
<path d="M211.115 44.9135C211.594 45.3895 211.819 46.0615 211.819 46.9295V50.6815H210.186V47.1395C210.186 46.6355 210.059 46.2435 209.805 45.9635C209.552 45.6835 209.2 45.5575 208.764 45.5575C208.327 45.5575 207.961 45.6975 207.694 45.9635C207.44 46.2435 207.299 46.6215 207.299 47.1395V50.6815H205.666V44.2835H207.299V45.0815C207.51 44.8015 207.792 44.5915 208.13 44.4235C208.468 44.2695 208.834 44.1855 209.242 44.1855C210.003 44.1855 210.636 44.4235 211.101 44.9135H211.115Z" fill="white"/>
<path d="M216.282 50.5119C215.874 50.7079 215.451 50.8059 214.973 50.8059C214.564 50.8059 214.212 50.7219 213.874 50.5679C213.537 50.4139 213.297 50.1759 213.114 49.8959C212.931 49.6159 212.833 49.2799 212.833 48.9159C212.833 48.3279 213.058 47.8379 213.494 47.4599C213.945 47.0819 214.607 46.8999 215.494 46.8999H217.127C217.113 46.4939 217 46.1719 216.775 45.9199C216.55 45.6819 216.254 45.5559 215.86 45.5559C215.522 45.5559 215.24 45.6399 215.015 45.8219C214.79 46.0039 214.649 46.2559 214.578 46.5779H212.945C213.03 46.1159 213.185 45.6959 213.452 45.3319C213.705 44.9679 214.057 44.6739 214.48 44.4779C214.902 44.2679 215.381 44.1699 215.902 44.1699C216.423 44.1699 216.93 44.2819 217.366 44.5059C217.803 44.7299 218.141 45.0519 218.394 45.4719C218.648 45.8919 218.76 46.3819 218.76 46.9419V50.6939H217.113V49.7839C216.93 50.0779 216.648 50.3159 216.24 50.5119H216.282ZM216.254 49.3219C216.507 49.2099 216.733 49.0279 216.902 48.8039C217.071 48.5799 217.155 48.2999 217.155 47.9779V47.9359H215.606C215.24 47.9359 214.959 48.0059 214.776 48.1599C214.592 48.2999 214.508 48.4959 214.508 48.7339C214.508 48.9719 214.593 49.1539 214.761 49.2939C214.93 49.4339 215.156 49.5039 215.465 49.5039C215.733 49.5039 216.001 49.4479 216.268 49.3359L216.254 49.3219Z" fill="white"/>
<path d="M221.858 42.1406V50.6946H220.225V42.1406H221.858Z" fill="white"/>
<path d="M229.475 44.2832L225.491 53.7192H223.759L225.153 50.5272L222.576 44.2832H224.407L226.068 48.7632L227.758 44.2832H229.489H229.475Z" fill="white"/>
<path d="M232.347 45.6135V48.7075C232.347 48.9175 232.404 49.0855 232.502 49.1695C232.601 49.2675 232.784 49.3095 233.037 49.3095H233.797V50.6675H232.77C231.404 50.6675 230.714 50.0095 230.714 48.6795V45.5995H229.954V44.2695H230.714V42.6875H232.347V44.2695H233.783V45.5995H232.347V45.6135Z" fill="white"/>
<path d="M234.952 43.2467C234.755 43.0647 234.67 42.8407 234.67 42.5747C234.67 42.3087 234.769 42.0847 234.952 41.9027C235.135 41.7207 235.374 41.6367 235.67 41.6367C235.966 41.6367 236.191 41.7347 236.388 41.9027C236.585 42.0847 236.67 42.3087 236.67 42.5747C236.67 42.8407 236.571 43.0647 236.388 43.2467C236.191 43.4287 235.966 43.5127 235.67 43.5127C235.374 43.5127 235.149 43.4287 234.952 43.2467ZM236.473 44.2827V50.6807H234.839V44.2827H236.473Z" fill="white"/>
<path d="M237.895 45.7535C238.162 45.2495 238.542 44.8715 239.021 44.5915C239.5 44.3115 240.049 44.1855 240.669 44.1855C241.471 44.1855 242.133 44.3815 242.654 44.7875C243.175 45.1795 243.527 45.7395 243.71 46.4535H241.95C241.851 46.1735 241.696 45.9635 241.485 45.7955C241.26 45.6415 240.992 45.5575 240.669 45.5575C240.204 45.5575 239.838 45.7255 239.57 46.0615C239.303 46.3975 239.162 46.8735 239.162 47.4895C239.162 48.1055 239.303 48.5675 239.57 48.9036C239.838 49.2396 240.204 49.4076 240.669 49.4076C241.33 49.4076 241.753 49.1135 241.964 48.5255H243.724C243.541 49.2255 243.189 49.7716 242.668 50.1776C242.147 50.5836 241.485 50.7935 240.697 50.7935C240.077 50.7935 239.528 50.6536 239.049 50.3876C238.571 50.1216 238.19 49.7295 237.923 49.2255C237.655 48.7215 237.515 48.1475 237.515 47.4895C237.515 46.8315 237.655 46.2435 237.923 45.7535H237.895Z" fill="white"/>
<path d="M245.808 50.5132C245.386 50.3172 245.062 50.0652 244.808 49.7432C244.555 49.4212 244.428 49.0572 244.414 48.6652H246.047C246.076 48.9172 246.202 49.1132 246.413 49.2812C246.625 49.4492 246.892 49.5192 247.216 49.5192C247.54 49.5192 247.765 49.4632 247.948 49.3372C248.117 49.2112 248.216 49.0572 248.216 48.8612C248.216 48.6512 248.103 48.4972 247.892 48.3992C247.681 48.3012 247.343 48.1752 246.878 48.0632C246.399 47.9512 246.005 47.8252 245.695 47.6992C245.386 47.5732 245.132 47.3912 244.907 47.1392C244.682 46.8872 244.569 46.5372 244.569 46.1172C244.569 45.7672 244.668 45.4452 244.879 45.1512C245.09 44.8572 245.372 44.6332 245.766 44.4512C246.146 44.2832 246.596 44.1992 247.117 44.1992C247.878 44.1992 248.497 44.3952 248.948 44.7732C249.398 45.1512 249.652 45.6692 249.708 46.3132H248.145C248.117 46.0612 248.019 45.8512 247.821 45.7112C247.624 45.5572 247.371 45.4872 247.061 45.4872C246.765 45.4872 246.54 45.5432 246.385 45.6552C246.23 45.7672 246.146 45.9072 246.146 46.1032C246.146 46.3132 246.259 46.4812 246.47 46.5932C246.681 46.7052 247.019 46.8172 247.484 46.9292C247.948 47.0412 248.328 47.1672 248.638 47.2932C248.934 47.4192 249.201 47.6012 249.427 47.8672C249.652 48.1192 249.764 48.4692 249.764 48.8892C249.764 49.2532 249.666 49.5892 249.455 49.8832C249.243 50.1772 248.962 50.4012 248.568 50.5692C248.187 50.7372 247.737 50.8212 247.23 50.8212C246.723 50.8212 246.23 50.7232 245.808 50.5412V50.5132Z" fill="white"/>
<defs>
<linearGradient id="paint0_linear_11250_260547" x1="58.0801" y1="13.6928" x2="71.3575" y2="13.6928" gradientUnits="userSpaceOnUse">
<stop stop-color="#FF0024"/>
<stop offset="1" stop-color="#FFD40C"/>
</linearGradient>
<linearGradient id="paint1_linear_11250_260547" x1="11.2217" y1="21.9808" x2="71.3571" y2="21.9808" gradientUnits="userSpaceOnUse">
<stop stop-color="#FF6400"/>
<stop offset="0.8" stop-color="#FFE000"/>
<stop offset="1" stop-color="#FFFF00"/>
</linearGradient>
<linearGradient id="paint2_linear_11250_260547" x1="51.561" y1="35.925" x2="66.5703" y2="35.925" gradientUnits="userSpaceOnUse">
<stop stop-color="#A40000"/>
<stop offset="1" stop-color="#FF0000"/>
</linearGradient>
<linearGradient id="paint3_linear_11250_260547" x1="1.4082" y1="35.9806" x2="58.08" y2="35.9806" gradientUnits="userSpaceOnUse">
<stop stop-color="#FF3200"/>
<stop offset="1" stop-color="#FFA200"/>
</linearGradient>
</defs>
</svg>
