<svg width="278" height="40" viewBox="0 0 278 40" fill="none" xmlns="http://www.w3.org/2000/svg">
<g clip-path="url(#clip0_11250_260265)">
<path d="M50.7812 39.6769V10.252H61.1807C63.145 10.252 64.8247 10.441 66.2198 10.8098C67.615 11.1785 68.7486 11.7087 69.6297 12.3909C70.5109 13.0732 71.1534 13.903 71.5572 14.8757C71.9611 15.8484 72.163 16.9363 72.163 18.1395C72.163 18.8171 72.0667 19.4671 71.8693 20.0848C71.6766 20.7072 71.3737 21.2926 70.9606 21.8366C70.5522 22.3852 70.0244 22.883 69.3773 23.3256C68.7302 23.7728 67.9638 24.1508 67.0734 24.4596C70.979 25.377 72.9295 27.5344 72.9295 30.9273C72.9295 32.172 72.6908 33.3244 72.2135 34.3939C71.7362 35.4634 71.0387 36.3854 70.1254 37.1737C69.2121 37.9574 68.0831 38.5705 66.743 39.0084C65.4029 39.451 63.8655 39.6677 62.1307 39.6677H50.7858L50.7812 39.6769ZM56.8392 22.8231H60.8182C61.6672 22.8231 62.4198 22.754 63.0807 22.6111C63.7416 22.4682 64.2923 22.2469 64.7375 21.9334C65.1826 21.6199 65.5222 21.2143 65.7563 20.7026C65.9904 20.1955 66.1097 19.587 66.1097 18.8678C66.1097 18.1487 66.0133 17.5171 65.816 17.0008C65.6232 16.4891 65.3203 16.0742 64.9165 15.7654C64.5126 15.4519 64.0032 15.226 63.379 15.0877C62.7595 14.9448 62.0298 14.8757 61.1807 14.8757H56.8392V22.8231ZM56.8392 26.9582V35.0117H62.0298C62.9981 35.0117 63.7967 34.8918 64.4208 34.6567C65.045 34.4216 65.5452 34.1081 65.9261 33.7163C66.3024 33.3244 66.564 32.8773 66.7155 32.3702C66.8623 31.8631 66.9358 31.3422 66.9358 30.7982C66.9358 30.2036 66.8486 29.6688 66.6742 29.194C66.4998 28.7192 66.2152 28.3181 65.8251 27.9862C65.435 27.6543 64.9256 27.4007 64.3015 27.2256C63.6773 27.0504 62.9063 26.9582 61.9885 26.9582H56.8392Z" fill="white"/>
<path d="M81.8332 18.7676V32.0533C81.8332 33.215 82.0994 34.1185 82.6317 34.7593C83.1641 35.4001 83.9535 35.7227 85.0044 35.7227C85.7846 35.7227 86.5189 35.5522 87.2027 35.2064C87.8911 34.8607 88.5428 34.3905 89.1624 33.7958V18.7676H94.7339V39.678H91.301C90.5851 39.678 90.1307 39.3553 89.9288 38.7053L89.5663 37.244C88.731 38.0692 87.8177 38.733 86.831 39.2447C85.8443 39.7518 84.6694 40.0053 83.3064 40.0053C82.1774 40.0053 81.1677 39.8117 80.2866 39.4199C79.4054 39.028 78.6665 38.4795 78.0745 37.7788C77.4825 37.0734 77.0327 36.2391 76.7252 35.2664C76.4132 34.2937 76.2617 33.2242 76.2617 32.0625V18.7768H81.8332V18.7676Z" fill="white"/>
<path d="M104.908 9.44141V26.5994H105.839C106.188 26.5994 106.463 26.5487 106.665 26.4473C106.867 26.3459 107.069 26.1569 107.271 25.8895L111.874 19.7215C112.104 19.4126 112.361 19.1775 112.65 19.0115C112.939 18.8502 113.306 18.7672 113.751 18.7672H118.841L112.866 26.392C112.393 27.0281 111.847 27.526 111.232 27.8948C111.544 28.1115 111.81 28.3604 112.04 28.6462C112.269 28.9274 112.489 29.2501 112.705 29.6004L119.144 39.6777H114.137C113.705 39.6777 113.334 39.6085 113.026 39.4656C112.714 39.3227 112.462 39.0692 112.26 38.705L107.579 31.0203C107.391 30.6976 107.193 30.4855 106.991 30.3933C106.789 30.2965 106.486 30.2504 106.083 30.2504H104.912V39.6777H99.3408V9.44141H104.912H104.908Z" fill="white"/>
<path d="M127.763 12.8247C127.763 13.2995 127.671 13.7374 127.483 14.1431C127.295 14.5488 127.042 14.9083 126.726 15.2218C126.409 15.5307 126.037 15.775 125.615 15.9502C125.193 16.1254 124.734 16.2129 124.252 16.2129C123.798 16.2129 123.362 16.1254 122.949 15.9502C122.535 15.775 122.177 15.5307 121.87 15.2218C121.563 14.9083 121.315 14.5534 121.136 14.1431C120.952 13.7374 120.86 13.2995 120.86 12.8247C120.86 12.3499 120.952 11.9119 121.136 11.497C121.319 11.0867 121.563 10.7226 121.87 10.4091C122.182 10.1002 122.54 9.85591 122.949 9.68073C123.357 9.50556 123.793 9.41797 124.252 9.41797C124.738 9.41797 125.193 9.50556 125.615 9.68073C126.037 9.85591 126.409 10.1002 126.726 10.4091C127.042 10.7226 127.295 11.0821 127.483 11.497C127.671 11.9073 127.763 12.3499 127.763 12.8247ZM127.097 18.7668V39.6773H121.526V18.7668H127.097Z" fill="white"/>
<path d="M139.048 39.9991C138.103 39.9991 137.272 39.8608 136.542 39.5842C135.817 39.3076 135.202 38.9111 134.707 38.3948C134.206 37.8831 133.83 37.2608 133.578 36.5278C133.321 35.7949 133.192 34.9743 133.192 34.0523V22.7765H131.232C130.934 22.7765 130.682 22.6843 130.475 22.4953C130.269 22.3063 130.163 22.0251 130.163 21.6425V19.4528L133.495 18.8443L134.624 13.4323C134.771 12.8238 135.184 12.5195 135.854 12.5195H138.764V18.8904H144.133V22.7811H138.764V33.6927C138.764 34.2736 138.901 34.7346 139.177 35.0711C139.452 35.4076 139.847 35.5782 140.356 35.5782C140.627 35.5782 140.852 35.5459 141.04 35.486C141.228 35.4261 141.389 35.3569 141.526 35.2832C141.659 35.2094 141.783 35.1403 141.903 35.0803C142.017 35.0204 142.132 34.9881 142.256 34.9881C142.417 34.9881 142.554 35.025 142.66 35.1034C142.765 35.1771 142.876 35.3016 142.981 35.4768L144.656 38.1551C143.89 38.7636 143.022 39.22 142.054 39.5335C141.086 39.847 140.081 39.9991 139.048 39.9991Z" fill="white"/>
<path d="M174.546 39.6777H171.316C170.953 39.6777 170.655 39.5855 170.425 39.4057C170.196 39.2213 170.021 38.9816 169.897 38.6866L167.295 31.8547H154.436L151.829 38.6866C151.751 38.9447 151.581 39.1752 151.334 39.378C151.086 39.5809 150.783 39.6823 150.434 39.6823H147.203L158.75 10.5801H162.968L174.537 39.6823L174.546 39.6777ZM155.588 28.8491H166.148L161.765 17.3889C161.618 17.0247 161.467 16.6006 161.311 16.1212C161.155 15.6417 161.003 15.1162 160.856 14.5492C160.71 15.1162 160.558 15.6417 160.411 16.1304C160.264 16.619 160.113 17.0431 159.966 17.4073L155.588 28.8445V28.8491Z" fill="white"/>
<path d="M189.425 22.5835C189.237 22.9062 188.975 23.0721 188.636 23.0721C188.42 23.0721 188.181 22.9984 187.92 22.8462C187.658 22.6987 187.346 22.5328 186.984 22.3484C186.621 22.164 186.185 22.0026 185.68 21.8505C185.175 21.703 184.579 21.6292 183.895 21.6292C183.317 21.6292 182.789 21.703 182.321 21.8505C181.848 21.998 181.449 22.2055 181.123 22.459C180.793 22.7172 180.536 23.0168 180.357 23.3625C180.178 23.7083 180.081 24.0817 180.081 24.4874C180.081 24.9991 180.233 25.4278 180.536 25.7735C180.839 26.1193 181.233 26.4143 181.729 26.6632C182.22 26.9122 182.784 27.138 183.413 27.3317C184.046 27.5253 184.694 27.7327 185.35 27.9494C186.011 28.166 186.658 28.415 187.287 28.6916C187.92 28.9682 188.48 29.3093 188.975 29.715C189.467 30.1206 189.861 30.6185 190.164 31.204C190.467 31.7894 190.618 32.4993 190.618 33.3245C190.618 34.2834 190.449 35.1685 190.104 35.9798C189.76 36.7912 189.255 37.4965 188.59 38.0911C187.924 38.6858 187.108 39.1514 186.139 39.4879C185.171 39.8291 184.051 39.995 182.784 39.995C181.357 39.995 180.058 39.7599 178.879 39.2851C177.699 38.8103 176.708 38.2064 175.9 37.478L176.791 36.0167C176.896 35.8277 177.034 35.6802 177.195 35.5834C177.355 35.4819 177.557 35.4312 177.8 35.4312C178.057 35.4312 178.319 35.5234 178.59 35.7124C178.856 35.9014 179.186 36.1043 179.567 36.3302C179.953 36.556 180.416 36.7589 180.962 36.9479C181.509 37.1369 182.183 37.2291 182.991 37.2291C183.679 37.2291 184.271 37.1415 184.776 36.9663C185.281 36.7912 185.703 36.556 186.038 36.2656C186.373 35.9752 186.626 35.6341 186.786 35.2422C186.947 34.8504 187.03 34.4401 187.03 34.0022C187.03 33.449 186.878 32.988 186.575 32.6238C186.272 32.2596 185.873 31.9508 185.382 31.6926C184.891 31.4345 184.326 31.2132 183.698 31.0242C183.064 30.8352 182.417 30.6323 181.747 30.4157C181.082 30.199 180.43 29.9501 179.797 29.6735C179.163 29.3969 178.604 29.0419 178.112 28.6086C177.621 28.1753 177.222 27.6544 176.919 27.0366C176.616 26.4189 176.465 25.6675 176.465 24.7732C176.465 23.9757 176.626 23.2104 176.951 22.4821C177.273 21.7537 177.75 21.1083 178.374 20.5551C178.998 20.0019 179.769 19.5594 180.687 19.2367C181.6 18.914 182.647 18.748 183.817 18.748C185.162 18.748 186.382 18.9601 187.479 19.3888C188.576 19.8175 189.508 20.4076 190.274 21.1636L189.425 22.565V22.5835Z" fill="white"/>
<path d="M208.021 39.678C207.645 39.678 207.356 39.618 207.154 39.4936C206.952 39.3737 206.791 39.134 206.668 38.7836L206.245 36.9351C205.722 37.4237 205.204 37.8617 204.69 38.2443C204.18 38.6315 203.643 38.9542 203.083 39.2078C202.523 39.4659 201.931 39.6595 201.298 39.7932C200.665 39.9315 199.958 39.996 199.178 39.996C198.398 39.996 197.617 39.8854 196.915 39.6595C196.213 39.4382 195.603 39.0971 195.089 38.6361C194.57 38.1751 194.162 37.6035 193.859 36.9212C193.556 36.239 193.404 35.4323 193.404 34.4964C193.404 33.6851 193.62 32.9106 194.061 32.1638C194.497 31.4216 195.212 30.7532 196.199 30.1631C197.191 29.5777 198.48 29.0937 200.077 28.711C201.674 28.333 203.634 28.1164 205.961 28.061V26.5213C205.961 24.9678 205.626 23.7923 204.96 23.004C204.295 22.2111 203.317 21.8146 202.023 21.8146C201.147 21.8146 200.417 21.9299 199.834 22.1512C199.247 22.377 198.746 22.6168 198.319 22.8841C197.897 23.1469 197.521 23.3866 197.2 23.6033C196.878 23.8199 196.553 23.926 196.231 23.926C195.961 23.926 195.736 23.8568 195.557 23.7139C195.378 23.571 195.217 23.4051 195.084 23.216L194.4 21.9575C195.543 20.8788 196.777 20.0675 198.104 19.5281C199.43 18.9888 200.894 18.7168 202.496 18.7168C203.652 18.7168 204.685 18.9058 205.584 19.2838C206.484 19.6618 207.241 20.192 207.856 20.8742C208.467 21.5565 208.93 22.377 209.251 23.3405C209.568 24.2994 209.724 25.3643 209.724 26.5259V39.6687H208.026L208.021 39.678ZM200.33 37.3039C200.935 37.3039 201.495 37.2439 202.014 37.1195C202.533 36.9996 203.014 36.8244 203.469 36.5893C203.918 36.3588 204.345 36.0776 204.749 35.7503C205.153 35.4184 205.557 35.0404 205.961 34.6255V30.4858C204.345 30.5412 202.973 30.6702 201.844 30.8731C200.715 31.0759 199.797 31.3387 199.086 31.666C198.379 31.9887 197.865 32.3805 197.544 32.8323C197.223 33.284 197.057 33.7819 197.057 34.3213C197.057 34.8606 197.14 35.2986 197.31 35.6766C197.48 36.0546 197.709 36.3634 198.007 36.5986C198.306 36.8337 198.65 37.0134 199.049 37.1287C199.444 37.2439 199.875 37.2993 200.33 37.2993V37.3039Z" fill="white"/>
<path d="M215.066 39.678V19.0949H217.37C217.907 19.0949 218.247 19.353 218.38 19.8693L218.642 21.8746C219.394 20.9665 220.239 20.2243 221.166 19.6435C222.097 19.0626 223.18 18.7722 224.415 18.7722C225.787 18.7722 226.898 19.1502 227.747 19.897C228.596 20.6484 229.206 21.6672 229.583 22.9487C229.881 22.2204 230.262 21.5934 230.734 21.0633C231.207 20.5332 231.73 20.1044 232.309 19.7633C232.887 19.4268 233.502 19.1779 234.158 19.0119C234.81 18.8506 235.475 18.7676 236.145 18.7676C238.339 18.7676 240.037 19.4406 241.235 20.7867C242.433 22.1328 243.029 24.0551 243.029 26.5583V39.678H239.193V26.5583C239.193 25.0048 238.853 23.8292 238.174 23.0317C237.495 22.2342 236.508 21.8332 235.214 21.8332C234.635 21.8332 234.089 21.9346 233.571 22.1374C233.052 22.3402 232.598 22.6399 232.208 23.0317C231.818 23.4236 231.505 23.9168 231.281 24.5115C231.051 25.1062 230.936 25.7884 230.936 26.5583V39.678H227.1V26.5583C227.1 24.9633 226.778 23.7785 226.141 22.9995C225.503 22.2204 224.562 21.8332 223.327 21.8332C222.478 21.8332 221.68 22.059 220.936 22.5108C220.188 22.9626 219.513 23.5895 218.908 24.387V39.678H215.071H215.066Z" fill="white"/>
<path fill-rule="evenodd" clip-rule="evenodd" d="M17.77 22.2611C18.1142 22.3672 18.44 22.4502 18.7934 22.5147L18.8576 22.5285C23.7774 23.3952 28.7018 19.5782 28.7018 14.2261C28.7018 11.7368 27.683 9.5563 26.0492 8.03504C24.7091 6.78576 22.9513 5.98363 21.0055 5.8269C21.5975 5.43045 22.1757 5.07088 22.7494 4.73896C24.4291 3.88614 26.3245 3.40671 28.3347 3.40671C34.3375 3.40671 40.2119 7.99816 40.2486 14.263V14.3275C40.2486 14.4382 40.2486 14.5534 40.2486 14.6641C40.2486 14.7793 40.2486 14.8899 40.2394 15.0006V15.0144C40.2394 15.1204 40.2303 15.2218 40.2257 15.3279V15.3601C40.2211 15.4616 40.2119 15.563 40.2073 15.6644V15.6921C40.1981 15.7935 40.1935 15.8995 40.1844 16.0009V16.0194C40.1752 16.1162 40.166 16.2176 40.1568 16.3144V16.3559C40.1431 16.4573 40.1339 16.5587 40.1201 16.6601V16.674V16.7016C40.1063 16.7984 40.0926 16.8906 40.0834 16.9874V17.0335C40.065 17.1257 40.0513 17.2179 40.0375 17.3101L40.0283 17.3608C40.0146 17.453 40.0008 17.5406 39.987 17.6328L39.9778 17.6835C39.9641 17.7711 39.9503 17.8587 39.932 17.9417L39.9228 18.0062C39.909 18.0938 39.8906 18.1814 39.8723 18.2736L39.8631 18.3243C39.8448 18.4073 39.8264 18.4949 39.808 18.5778L39.7897 18.6747L39.7392 18.8959L39.7117 19.0066C39.6933 19.0849 39.6749 19.1587 39.6566 19.2371L39.6382 19.3062C39.6199 19.3846 39.5969 19.4676 39.574 19.5459L39.5556 19.6151C39.5373 19.6888 39.5143 19.7672 39.4914 19.841L39.4638 19.9332C39.4455 19.9977 39.4271 20.0668 39.4042 20.1314L39.3675 20.2512L39.3078 20.4402L39.2665 20.5739L39.216 20.7307L39.1609 20.892L39.1105 21.0395L39.06 21.187L39.0049 21.3346L38.9498 21.4867L38.881 21.6619L38.8351 21.7817C37.7337 24.5384 35.7602 27.2675 32.5156 27.5026C27.7289 27.8483 24.6632 24.2526 20.2345 24.2342H20.184L20.0279 24.2296H19.9637C19.8948 24.2296 19.8306 24.2296 19.7618 24.2296C19.7021 24.2296 19.647 24.2296 19.5874 24.2296H19.5782H19.569H19.5506H19.5139H19.4956H19.4864H19.468H19.4405H19.3946H19.3854H19.3671H19.3579H19.2569H19.2477H19.2294H19.2202H19.2018C14.2132 24.4739 12.4876 27.5948 8.68305 27.5948C2.08816 27.5994 0 19.7165 0 14.3229C0 8.92935 2.26714 3.66025 5.92485 0H20.0968C17.1734 2.91806 11.9736 9.72686 11.9185 14.2261C11.8727 17.7942 14.383 21.1732 17.77 22.2611ZM19.9591 24.225C19.8903 24.225 19.826 24.225 19.7572 24.225C19.6975 24.225 19.6424 24.225 19.5828 24.225H19.9591Z" fill="white"/>
<path fill-rule="evenodd" clip-rule="evenodd" d="M0 25.1002C0.555312 27.1608 4.20385 31.0562 8.99054 30.586C16.1683 29.8761 16.9072 27.1194 20.0968 27.1608C24.1125 27.2162 25.705 30.798 31.2856 30.798C37.7428 30.798 40.0513 25.4091 40.2486 25.1002V39.7735H0C0 39.7735 0 24.9896 0 25.1002Z" fill="white"/>
<path d="M277.908 13.2258C277.908 16.213 276.921 18.9697 275.26 21.1824L273.736 20.03C275.159 18.1353 275.999 15.7796 275.999 13.2258C275.999 10.6719 275.205 8.45454 273.856 6.58753L275.402 5.45811C276.981 7.63859 277.908 10.3215 277.908 13.2212V13.2258ZM271.9 15.7197C271.639 16.4757 271.267 17.1764 270.794 17.808C270.501 18.1998 270.17 18.564 269.803 18.8913C269.441 19.2232 269.046 19.5137 268.624 19.7672C267.49 20.4541 266.159 20.8413 264.741 20.8413C260.556 20.8413 257.164 17.43 257.164 13.2258C257.164 9.02155 260.556 5.61484 264.741 5.61484C265.833 5.61484 266.866 5.84534 267.802 6.26484C268.417 6.53682 268.986 6.88717 269.505 7.30667C270.023 7.73078 270.487 8.21482 270.872 8.75879C271.308 9.35807 271.657 10.0219 271.9 10.7364H273.777C273.475 9.63006 272.979 8.60666 272.327 7.70312C271.845 7.03008 271.276 6.43079 270.634 5.90988C270 5.39357 269.289 4.95563 268.532 4.61911C267.371 4.1028 266.09 3.81699 264.741 3.81699V1.91771C266.361 1.91771 267.903 2.26346 269.294 2.88118L270.065 1.12942C268.436 0.40106 266.636 0 264.741 0C257.472 0 251.574 5.9191 251.574 13.2258C251.574 20.5324 257.472 26.4515 264.741 26.4515C267.206 26.4515 269.514 25.7739 271.487 24.5845L270.505 22.9388C268.821 23.953 266.848 24.5338 264.736 24.5338V22.6346C266.49 22.6346 268.133 22.1505 269.537 21.3069C270.06 20.9934 270.547 20.6339 270.996 20.2282C271.446 19.8225 271.859 19.3754 272.222 18.8867C272.924 17.9509 273.456 16.8814 273.773 15.7197H271.896H271.9ZM273.213 12.3268C272.717 12.3268 272.318 12.7279 272.318 13.2258C272.318 13.7236 272.717 14.1247 273.213 14.1247C273.709 14.1247 274.108 13.7236 274.108 13.2258C274.108 12.7279 273.709 12.3268 273.213 12.3268ZM271.721 3.1255C271.409 3.51274 271.469 4.07975 271.855 4.38861C272.24 4.70209 272.805 4.64216 273.112 4.25493C273.424 3.8677 273.364 3.30068 272.979 2.99182C272.593 2.67835 272.029 2.73827 271.721 3.1255ZM273.566 21.7495C273.236 21.3807 272.671 21.3484 272.304 21.6803C271.937 22.0122 271.905 22.5792 272.235 22.948C272.566 23.3168 273.13 23.3491 273.498 23.0172C273.865 22.6853 273.897 22.1182 273.566 21.7495Z" fill="white"/>
</g>
<defs>
<clipPath id="clip0_11250_260265">
<rect width="278" height="40" fill="white"/>
</clipPath>
</defs>
</svg>
