<svg width="201" height="36" viewBox="0 0 201 36" fill="none" xmlns="http://www.w3.org/2000/svg">
<path d="M52.9712 32.8159C53.669 32.8159 54.2517 32.7308 54.7271 32.5604C55.2026 32.39 55.5783 32.1655 55.862 31.8867C56.1457 31.6079 56.3527 31.275 56.4754 30.9033C56.5981 30.5316 56.6595 30.1289 56.6595 29.7108C56.6595 29.2926 56.5905 28.8745 56.4524 28.5183C56.3144 28.1698 56.092 27.8678 55.8006 27.62C55.5016 27.3722 55.1182 27.1786 54.6505 27.047C54.1827 26.9153 53.6153 26.8534 52.9558 26.8534H49.1832V32.8159H52.9712ZM49.1832 18.3509V24.2283H52.166C53.4466 24.2283 54.4128 23.996 55.0722 23.5236C55.724 23.0513 56.0537 22.3079 56.0537 21.2857C56.0537 20.2636 55.7546 19.4737 55.1642 19.0169C54.5738 18.5677 53.6383 18.3432 52.3807 18.3432H49.1909L49.1832 18.3509ZM52.3731 15.4238C53.692 15.4238 54.8192 15.5477 55.7623 15.8033C56.6978 16.0588 57.4723 16.415 58.0704 16.8874C58.6685 17.3597 59.1055 17.925 59.3892 18.591C59.6653 19.2569 59.8033 20.008 59.8033 20.8443C59.8033 21.3244 59.7343 21.7813 59.5963 22.215C59.4583 22.6486 59.2436 23.059 58.9445 23.4384C58.6531 23.8179 58.2774 24.1663 57.8327 24.4761C57.3802 24.7858 56.8435 25.0491 56.2224 25.2659C58.9905 25.8932 60.3707 27.4032 60.3707 29.7959C60.3707 30.6555 60.2097 31.4531 59.88 32.1887C59.5579 32.9166 59.0825 33.5516 58.4614 34.0781C57.8403 34.6047 57.0735 35.0229 56.161 35.3249C55.2486 35.6269 54.2134 35.774 53.0402 35.774H45.4336V15.4238H52.3731Z" fill="#3E4F8C"/>
<path d="M75.3076 21.332V35.7661H73.2066C72.7541 35.7661 72.4628 35.557 72.3401 35.1311L72.1024 33.9773C71.5196 34.5813 70.8678 35.0614 70.1624 35.4331C69.4569 35.8048 68.6288 35.9907 67.6703 35.9907C66.8882 35.9907 66.1981 35.859 65.6 35.588C65.0019 35.3247 64.4958 34.9453 64.0894 34.4574C63.683 33.9696 63.3686 33.3888 63.1616 32.7229C62.9545 32.0492 62.8472 31.3135 62.8472 30.5082V21.332H66.2901V30.5082C66.2901 31.391 66.4894 32.0724 66.8958 32.5525C67.3022 33.0326 67.908 33.2804 68.7131 33.2804C69.3036 33.2804 69.8633 33.1488 70.3848 32.8777C70.9062 32.6067 71.3969 32.2428 71.8647 31.7704V21.332H75.3076Z" fill="#3E4F8C"/>
<path d="M82.1459 14.8652V26.8368H82.79C83.02 26.8368 83.2041 26.8059 83.3421 26.7439C83.4801 26.682 83.6105 26.5581 83.7562 26.3722L87.3064 21.9429C87.4521 21.7493 87.6208 21.5944 87.7972 21.4938C87.9812 21.3931 88.2112 21.3389 88.5026 21.3389H91.6541L87.2067 26.6974C86.8924 27.1233 86.5473 27.4408 86.1792 27.6654C86.3709 27.8048 86.5473 27.9674 86.7006 28.161C86.854 28.3468 86.9997 28.5482 87.1377 28.765L91.8995 35.7729H88.794C88.5256 35.7729 88.2956 35.7265 88.0962 35.6413C87.9045 35.5484 87.7358 35.3935 87.6055 35.1535L83.9555 29.6787C83.8252 29.4619 83.6871 29.3225 83.5491 29.2606C83.4111 29.1986 83.2041 29.1599 82.9204 29.1599H82.1382V35.7729H78.6953V14.8652H82.1382H82.1459Z" fill="#3E4F8C"/>
<path d="M97.1611 21.3314V35.7655H93.7028V21.3314H97.1611ZM97.6365 17.1266C97.6365 17.4286 97.5751 17.7074 97.4524 17.9707C97.3297 18.234 97.1687 18.4663 96.9694 18.6599C96.77 18.8535 96.5323 19.0161 96.2639 19.1322C95.9955 19.2484 95.7041 19.3103 95.3974 19.3103C95.0907 19.3103 94.8223 19.2484 94.5539 19.1322C94.2932 19.0161 94.0632 18.8612 93.8638 18.6599C93.6721 18.4663 93.5111 18.234 93.3961 17.9707C93.2811 17.7074 93.2197 17.4286 93.2197 17.1266C93.2197 16.8246 93.2811 16.5226 93.3961 16.2516C93.5111 15.9806 93.6645 15.7483 93.8638 15.5469C94.0555 15.3534 94.2856 15.1907 94.5539 15.0746C94.8223 14.9584 95.0984 14.8965 95.3974 14.8965C95.6965 14.8965 95.9879 14.9584 96.2639 15.0746C96.5323 15.1907 96.77 15.3456 96.9694 15.5469C97.1687 15.7405 97.3297 15.9806 97.4524 16.2516C97.5751 16.5226 97.6365 16.8169 97.6365 17.1266Z" fill="#3E4F8C"/>
<path d="M105.442 35.9982C104.2 35.9982 103.242 35.642 102.582 34.9373C101.915 34.2326 101.585 33.2492 101.585 32.0025V23.9414H100.121C99.9367 23.9414 99.7757 23.8795 99.6453 23.7556C99.515 23.6317 99.4536 23.4536 99.4536 23.2058V21.8274L101.754 21.448L102.475 17.5065C102.521 17.3206 102.613 17.1735 102.735 17.0728C102.866 16.9722 103.035 16.918 103.234 16.918H105.021V21.4635H108.839V23.9414H105.021V31.7624C105.021 32.2116 105.128 32.5678 105.35 32.8156C105.565 33.0711 105.872 33.195 106.247 33.195C106.462 33.195 106.638 33.1718 106.784 33.1176C106.93 33.0634 107.053 33.0092 107.16 32.955C107.267 32.9007 107.359 32.8465 107.444 32.7923C107.528 32.7381 107.612 32.7149 107.697 32.7149C107.796 32.7149 107.881 32.7381 107.95 32.7923C108.011 32.8465 108.088 32.924 108.157 33.0246L109.184 34.7127C108.686 35.1386 108.103 35.4561 107.459 35.673C106.807 35.8898 106.132 35.9982 105.442 35.9982Z" fill="#3E4F8C"/>
<path d="M123.175 28.1686L120.414 20.7657C120.192 20.1927 119.962 19.4648 119.732 18.582C119.632 19.0234 119.517 19.4261 119.394 19.7978C119.272 20.1695 119.164 20.4947 119.057 20.7735L116.296 28.1608H123.167L123.175 28.1686ZM129.347 35.7651H126.824C126.533 35.7651 126.303 35.6954 126.127 35.5482C125.95 35.4011 125.812 35.223 125.72 35.0062L124.049 30.5304H115.415L113.743 35.0062C113.666 35.192 113.536 35.3701 113.352 35.525C113.168 35.6876 112.938 35.7651 112.654 35.7651H110.131L118.083 15.5078H121.388L129.34 35.7651H129.347Z" fill="#3E4F8C"/>
<path d="M139.611 24.0178C139.534 24.1495 139.45 24.2424 139.358 24.2966C139.266 24.3508 139.151 24.3818 139.013 24.3818C138.852 24.3818 138.683 24.3353 138.499 24.2346C138.315 24.134 138.093 24.0256 137.847 23.9017C137.594 23.7778 137.303 23.6694 136.965 23.5687C136.628 23.468 136.229 23.4216 135.777 23.4216C135.409 23.4216 135.071 23.468 134.765 23.5532C134.466 23.6461 134.205 23.77 133.998 23.9326C133.791 24.0953 133.63 24.2888 133.515 24.5057C133.4 24.7225 133.346 24.9625 133.346 25.2181C133.346 25.5588 133.446 25.8376 133.653 26.0621C133.86 26.2867 134.128 26.4803 134.458 26.6429C134.795 26.8055 135.171 26.9526 135.6 27.0843C136.03 27.2159 136.467 27.3553 136.912 27.5102C137.356 27.6573 137.793 27.8354 138.223 28.029C138.652 28.2226 139.028 28.4704 139.365 28.7569C139.703 29.0434 139.971 29.3919 140.171 29.7945C140.378 30.2049 140.477 30.7005 140.477 31.2813C140.477 31.955 140.355 32.5822 140.117 33.1553C139.871 33.7283 139.519 34.2239 139.059 34.6498C138.591 35.0757 138.016 35.4009 137.326 35.6332C136.636 35.8655 135.846 35.9817 134.949 35.9817C134.458 35.9817 133.983 35.9352 133.522 35.85C133.062 35.7571 132.625 35.641 132.211 35.4861C131.797 35.3312 131.414 35.1454 131.053 34.9285C130.693 34.7117 130.379 34.4794 130.103 34.2239L130.8 33.0701C130.885 32.9307 130.992 32.8223 131.115 32.7371C131.237 32.6597 131.398 32.621 131.582 32.621C131.774 32.621 131.974 32.6829 132.158 32.8145C132.349 32.9384 132.572 33.0778 132.825 33.2327C133.078 33.3798 133.392 33.5192 133.752 33.6508C134.113 33.7747 134.565 33.8444 135.102 33.8444C135.547 33.8444 135.93 33.7902 136.26 33.6818C136.582 33.5734 136.85 33.4263 137.065 33.2404C137.28 33.0546 137.433 32.8378 137.54 32.5977C137.64 32.3577 137.694 32.1021 137.694 31.8311C137.694 31.4672 137.594 31.1652 137.387 30.9328C137.18 30.7005 136.912 30.4992 136.574 30.3288C136.237 30.1585 135.853 30.0114 135.416 29.8797C134.987 29.7481 134.542 29.6087 134.098 29.4538C133.653 29.3067 133.216 29.1286 132.779 28.935C132.349 28.7414 131.958 28.4859 131.621 28.1839C131.283 27.8819 131.007 27.5102 130.808 27.0688C130.601 26.6352 130.501 26.1008 130.501 25.4736C130.501 24.9006 130.616 24.3585 130.846 23.8397C131.076 23.3209 131.406 22.8718 131.851 22.4768C132.296 22.0819 132.832 21.7722 133.484 21.5399C134.128 21.3076 134.872 21.1914 135.723 21.1914C136.682 21.1914 137.548 21.3463 138.33 21.656C139.112 21.9658 139.764 22.3839 140.293 22.926L139.626 24.0256L139.611 24.0178Z" fill="#3E4F8C"/>
<path d="M150.881 29.4941C149.815 29.5328 148.91 29.618 148.182 29.7574C147.446 29.8967 146.855 30.0671 146.395 30.2762C145.943 30.4853 145.613 30.7408 145.414 31.0273C145.214 31.3216 145.115 31.6391 145.115 31.9875C145.115 32.336 145.168 32.6147 145.276 32.8548C145.383 33.0948 145.529 33.2884 145.72 33.4433C145.912 33.5982 146.134 33.7143 146.387 33.784C146.64 33.8537 146.924 33.8924 147.231 33.8924C148.013 33.8924 148.68 33.7453 149.248 33.4511C149.807 33.1568 150.352 32.7232 150.881 32.1656V29.5096V29.4941ZM142.937 23.4154C144.547 21.9054 146.456 21.1465 148.68 21.1465C149.501 21.1465 150.221 21.2781 150.858 21.5492C151.494 21.8202 152.031 22.1919 152.46 22.6797C152.89 23.1676 153.22 23.7483 153.45 24.4143C153.68 25.088 153.787 25.8314 153.787 26.6444V35.7586H152.453C152.161 35.7586 151.947 35.7122 151.801 35.627C151.655 35.5341 151.525 35.356 151.425 35.085L151.134 33.9157C150.773 34.2409 150.413 34.5352 150.06 34.7984C149.708 35.054 149.34 35.2708 148.964 35.4566C148.588 35.6347 148.182 35.7664 147.752 35.8593C147.323 35.9445 146.847 35.991 146.326 35.991C145.751 35.991 145.214 35.9135 144.716 35.7509C144.217 35.5883 143.788 35.3482 143.428 35.023C143.067 34.6978 142.776 34.2951 142.569 33.8227C142.362 33.3426 142.254 32.7851 142.254 32.1346C142.254 31.5848 142.4 31.0428 142.691 30.5162C142.983 29.9897 143.466 29.5173 144.141 29.0992C144.815 28.681 145.697 28.3403 146.801 28.0615C147.906 27.7905 149.263 27.6356 150.873 27.5969V26.6367C150.873 25.6068 150.658 24.8324 150.221 24.3291C149.784 23.8258 149.14 23.5702 148.297 23.5702C147.722 23.5702 147.239 23.6399 146.847 23.787C146.456 23.9342 146.119 24.0891 145.828 24.2594C145.536 24.4298 145.283 24.5846 145.061 24.7318C144.838 24.8789 144.601 24.9486 144.348 24.9486C144.141 24.9486 143.972 24.8944 143.826 24.786C143.681 24.6776 143.566 24.5459 143.474 24.3833L142.929 23.3999L142.937 23.4154Z" fill="#3E4F8C"/>
<path d="M157.291 35.7726V21.416H159.1C159.507 21.416 159.767 21.6096 159.882 21.989L160.074 23.2435C160.335 22.9415 160.603 22.6704 160.879 22.4226C161.155 22.1748 161.454 21.958 161.776 21.7722C162.099 21.5863 162.444 21.4469 162.804 21.3463C163.172 21.2456 163.571 21.1914 163.992 21.1914C164.445 21.1914 164.867 21.2611 165.25 21.385C165.633 21.5166 165.971 21.7025 166.262 21.9503C166.554 22.1981 166.807 22.4923 167.021 22.833C167.236 23.1815 167.412 23.5687 167.55 24.0023C167.765 23.5067 168.034 23.0808 168.356 22.7246C168.678 22.3684 169.046 22.0742 169.444 21.8496C169.843 21.625 170.265 21.4547 170.717 21.354C171.17 21.2456 171.622 21.1914 172.09 21.1914C172.849 21.1914 173.531 21.3153 174.13 21.5554C174.728 21.8031 175.234 22.1516 175.648 22.6162C176.062 23.0808 176.376 23.6539 176.591 24.3276C176.806 25.0013 176.913 25.7756 176.913 26.6352V35.7648H173.915V26.6352C173.915 25.6207 173.7 24.8619 173.271 24.3508C172.841 23.8397 172.197 23.5842 171.354 23.5842C170.97 23.5842 170.618 23.6461 170.28 23.7778C169.943 23.9094 169.651 24.103 169.406 24.3508C169.153 24.6063 168.961 24.9238 168.816 25.3033C168.67 25.6827 168.601 26.1241 168.601 26.6352V35.7648H165.603V26.6352C165.603 25.582 165.396 24.8154 164.974 24.3198C164.56 23.8242 163.946 23.5842 163.134 23.5842C162.574 23.5842 162.06 23.7236 161.585 24.0101C161.109 24.2966 160.672 24.6915 160.274 25.1871V35.7648H157.275L157.291 35.7726Z" fill="#3E4F8C"/>
<path d="M197.862 10.8013C197.862 11.1342 197.593 11.4053 197.264 11.4053C196.934 11.4053 196.666 11.1342 196.666 10.8013C196.666 10.4683 196.934 10.1973 197.264 10.1973C197.593 10.1973 197.862 10.4683 197.862 10.8013Z" fill="#ED2227"/>
<path d="M198.191 23.6704C198.191 23.3374 197.922 23.0664 197.585 23.0664C197.248 23.0664 196.987 23.3374 196.987 23.6704C196.987 24.0034 197.255 24.2822 197.585 24.2822C197.915 24.2822 198.191 24.0111 198.191 23.6704Z" fill="#ED2227"/>
<path d="M198.406 17.3813C198.406 17.0484 198.138 16.7773 197.8 16.7773C197.463 16.7773 197.202 17.0484 197.202 17.3813C197.202 17.7143 197.471 17.9853 197.8 17.9853C198.13 17.9853 198.406 17.7143 198.406 17.3813Z" fill="#ED2227"/>
<path d="M199.267 12.0156L198.24 12.7744C199.175 14.0676 199.727 15.6628 199.727 17.3819C199.727 19.1009 199.144 20.789 198.155 22.0977L199.167 22.8721C200.318 21.3466 201 19.4417 201 17.3741C201 15.3066 200.356 13.5101 199.267 12.0078" fill="#ED2227"/>
<path d="M191.984 25.2125H191.953V23.9038H191.984C194.967 23.9038 197.482 21.8518 198.226 19.0718H196.899C196.202 21.1316 194.262 22.6184 191.992 22.6184C189.132 22.6184 186.801 20.2721 186.801 17.3837C186.801 14.4954 189.132 12.1413 191.992 12.1413C194.269 12.1413 196.202 13.6281 196.899 15.6879H198.226C197.49 12.9079 194.967 10.8559 191.984 10.8559H191.953V9.55497H191.984C193.119 9.55497 194.193 9.80276 195.166 10.2441L195.688 9.07486C194.561 8.55604 193.303 8.26953 191.984 8.26953C187.008 8.26953 182.959 12.3581 182.959 17.3837C182.959 22.4093 187.008 26.498 191.984 26.498C193.702 26.498 195.304 26.0101 196.677 25.1661L196.017 24.0665C194.844 24.7944 193.464 25.2125 191.984 25.2125Z" fill="#ED2227"/>
<path d="M18.8075 5.00815C18.8075 5.00815 26.1534 -0.334928 33.2385 6.47944C38.5601 11.598 35.6233 24.6769 28.4538 24.6769C28.4538 24.6769 27.0735 25.0021 23.6306 23.376C20.1877 21.7498 16.185 20.6425 11.2239 23.7941C6.26273 26.9535 -0.761099 23.4224 0.0670388 10.7616C0.458104 4.69841 5.16622 -0.00195312 5.16622 -0.00195312H17.9793C17.9793 -0.00195312 10.5875 6.83564 10.5875 12.442C10.5875 18.0484 14.9045 20.3172 17.987 20.3172C21.0695 20.3172 25.701 18.0174 25.701 12.442C25.701 6.86662 20.6938 5.10108 18.8075 5.00815Z" fill="#FEC716"/>
<path d="M0 23.0276V35.7658H35.9627V22.6172C35.9627 22.6172 34.5441 27.6273 27.8193 27.6273C22.3444 27.6273 21.4702 24.2201 17.9737 24.2201C14.4771 24.2201 13.6796 27.4182 6.83214 27.4182C1.87865 27.4182 0 23.0276 0 23.0276Z" fill="#ED2227"/>
</svg>
