<svg width="205" height="48" viewBox="0 0 205 48" fill="none" xmlns="http://www.w3.org/2000/svg">
<ellipse cx="9.22578" cy="16.9677" rx="9.22578" ry="9.22547" fill="#FF3B30"/>
<ellipse cx="31.0319" cy="16.9677" rx="9.22578" ry="9.22547" fill="#007AFF"/>
<ellipse cx="9.22578" cy="38.7723" rx="9.22578" ry="9.22547" fill="#FF9500"/>
<ellipse cx="31.0319" cy="38.7723" rx="9.22578" ry="9.22547" fill="#00C7BE"/>
<path d="M70.6923 46.4499C65.1851 46.4499 60.8005 45.052 57.5385 42.2561C54.2765 39.4178 52.6455 35.4358 52.6455 30.31C52.6455 25.1842 54.2765 21.2022 57.5385 18.3639C60.8428 15.4833 65.2486 14.043 70.7559 14.043C75.7547 14.043 79.7369 14.975 82.7023 16.8389V24.4005C81.3467 23.4262 79.7581 22.706 77.9364 22.24C76.1572 21.7741 74.272 21.5411 72.2809 21.5411C69.3155 21.5411 66.9432 22.2612 65.1639 23.7015C63.3846 25.1418 62.495 27.3447 62.495 30.31C62.495 33.2753 63.3634 35.4782 65.1003 36.9185C66.8796 38.3164 69.252 39.0154 72.2174 39.0154C76.3266 39.0154 79.9487 38.0199 83.0836 36.0289V43.5269C79.9487 45.4756 75.8183 46.4499 70.6923 46.4499Z" fill="black"/>
<path d="M93.0582 10.294C91.5755 10.294 90.3258 9.8068 89.309 8.83247C88.2923 7.85815 87.7839 6.62965 87.7839 5.14698C87.7839 3.70667 88.2923 2.49936 89.309 1.52503C90.3258 0.508344 91.5755 0 93.0582 0C94.5409 0 95.7906 0.508344 96.8074 1.52503C97.8241 2.49936 98.3324 3.70667 98.3324 5.14698C98.3324 6.62965 97.8241 7.85815 96.8074 8.83247C95.7906 9.8068 94.5409 10.294 93.0582 10.294ZM88.2288 14.9961H97.8876V45.4968H88.2288V14.9961Z" fill="black"/>
<path d="M116.794 46.4499C114.507 46.4499 112.05 46.1958 109.423 45.6874C106.839 45.2214 104.805 44.5436 103.323 43.654V36.156C105.017 37.1726 107.051 37.9987 109.423 38.6341C111.795 39.2696 113.998 39.5873 116.032 39.5873C117.769 39.5873 119.04 39.439 119.844 39.1425C120.649 38.8459 121.052 38.2952 121.052 37.4904C121.052 36.8549 120.819 36.3466 120.353 35.9653C119.887 35.5417 119.167 35.1816 118.192 34.8851C117.26 34.5462 115.693 34.059 113.49 33.4236C110.906 32.6611 108.872 31.8986 107.39 31.1361C105.949 30.3312 104.848 29.3357 104.085 28.1495C103.365 26.9634 103.005 25.4384 103.005 23.5744C103.005 20.3973 104.255 18.025 106.754 16.4576C109.296 14.8479 112.727 14.043 117.048 14.043C119.167 14.043 121.348 14.276 123.594 14.742C125.881 15.1656 127.639 15.7375 128.868 16.4576V23.7651C127.639 22.9602 126.029 22.3036 124.038 21.7952C122.09 21.2869 120.183 21.0327 118.319 21.0327C116.582 21.0327 115.227 21.2022 114.252 21.5411C113.32 21.88 112.854 22.5154 112.854 23.4474C112.854 24.2522 113.299 24.8665 114.189 25.2901C115.121 25.7137 116.837 26.2433 119.336 26.8787L120.607 27.1964C123.276 27.9166 125.352 28.7214 126.834 29.611C128.317 30.4583 129.355 31.4961 129.948 32.7246C130.584 33.9108 130.901 35.4146 130.901 37.2362C130.901 40.0321 129.694 42.2773 127.279 43.9717C124.864 45.6239 121.37 46.4499 116.794 46.4499Z" fill="black"/>
<path d="M153.2 46.4499C147.353 46.4499 142.757 45.052 139.41 42.2561C136.064 39.4178 134.39 35.457 134.39 30.3735C134.39 25.3325 135.873 21.3504 138.838 18.4275C141.846 15.5045 146.125 14.043 151.675 14.043C155.318 14.043 158.41 14.7208 160.952 16.0764C163.494 17.432 165.421 19.3171 166.735 21.7317C168.048 24.104 168.705 26.794 168.705 29.8017V33.6778H143.541C144.219 37.5751 147.862 39.5237 154.471 39.5237C156.419 39.5237 158.432 39.3543 160.507 39.0154C162.583 38.6765 164.384 38.2105 165.909 37.6174V44.353C164.426 44.9884 162.52 45.4968 160.19 45.878C157.86 46.2593 155.53 46.4499 153.2 46.4499ZM159.618 27.4506C159.491 25.4172 158.728 23.8498 157.33 22.7484C155.932 21.6046 154.005 21.0327 151.547 21.0327C149.133 21.0327 147.226 21.6046 145.828 22.7484C144.43 23.8922 143.668 25.4596 143.541 27.4506H159.618Z" fill="black"/>
<path d="M184.751 46.4499C181.023 46.4499 177.973 45.518 175.6 43.654C173.27 41.7477 172.105 39.1637 172.105 35.9018C172.105 32.5128 173.228 29.8864 175.473 28.0225C177.718 26.1162 180.896 25.163 185.005 25.163C186.827 25.163 188.563 25.3537 190.216 25.7349C191.868 26.1162 193.329 26.6457 194.6 27.3235V26.561C194.6 24.6547 193.922 23.2567 192.567 22.3671C191.211 21.4775 189.135 21.0327 186.339 21.0327C182.611 21.0327 179.18 21.7317 176.045 23.1296V16.1399C177.401 15.5469 179.159 15.0597 181.319 14.6784C183.48 14.2548 185.64 14.043 187.801 14.043C193.308 14.043 197.417 15.1868 200.129 17.4743C202.84 19.7195 204.196 22.8755 204.196 26.9422V45.4968H195.172V42.7009C192.588 45.2002 189.114 46.4499 184.751 46.4499ZM187.356 40.0956C188.924 40.0956 190.343 39.7991 191.614 39.206C192.885 38.613 193.88 37.7869 194.6 36.7278V33.6778C192.44 32.2375 190.067 31.5173 187.483 31.5173C185.704 31.5173 184.327 31.8986 183.353 32.6611C182.421 33.3813 181.955 34.4615 181.955 35.9018C181.955 37.2574 182.421 38.2952 183.353 39.0154C184.285 39.7355 185.619 40.0956 187.356 40.0956Z" fill="black"/>
</svg>
