<svg width="141" height="38" viewBox="0 0 141 38" fill="none" xmlns="http://www.w3.org/2000/svg">
<g filter="url(#filter0_dd_11011_217781)">
<circle cx="8.15054" cy="13.3107" r="6.15054" fill="#FF3B30"/>
<circle cx="22.6876" cy="13.3107" r="6.15054" fill="#007AFF"/>
<circle cx="8.15054" cy="27.8498" r="6.15054" fill="#FF9500"/>
<circle cx="22.6876" cy="27.8498" r="6.15054" fill="#00C7BE"/>
<path d="M49.1289 32.9677C45.4574 32.9677 42.5343 32.0357 40.3596 30.1717C38.185 28.2795 37.0977 25.6247 37.0977 22.2074C37.0977 18.7901 38.185 16.1353 40.3596 14.2431C42.5626 12.3226 45.4998 11.3623 49.1713 11.3623C52.5039 11.3623 55.1586 11.9837 57.1356 13.2263V18.2676C56.2319 17.618 55.1728 17.1379 53.9583 16.8272C52.7722 16.5166 51.5154 16.3612 50.188 16.3612C48.211 16.3612 46.6295 16.8414 45.4433 17.8016C44.2571 18.7618 43.664 20.2304 43.664 22.2074C43.664 24.1844 44.243 25.653 45.4009 26.6132C46.5871 27.5452 48.1687 28.0112 50.1456 28.0112C52.8851 28.0112 55.2999 27.3475 57.3898 26.0201V31.019C55.2999 32.3182 52.5462 32.9677 49.1289 32.9677Z" fill="white"/>
<path d="M64.0395 8.86289C63.0511 8.86289 62.2179 8.5381 61.5401 7.88853C60.8623 7.23896 60.5234 6.41993 60.5234 5.43144C60.5234 4.47121 60.8623 3.6663 61.5401 3.01672C62.2179 2.33891 63.0511 2 64.0395 2C65.028 2 65.8612 2.33891 66.539 3.01672C67.2168 3.6663 67.5557 4.47121 67.5557 5.43144C67.5557 6.41993 67.2168 7.23896 66.539 7.88853C65.8612 8.5381 65.028 8.86289 64.0395 8.86289ZM60.8199 11.9978H67.2592V32.3323H60.8199V11.9978Z" fill="white"/>
<path d="M79.8636 32.9677C78.3386 32.9677 76.7005 32.7983 74.9495 32.4594C73.2267 32.1487 71.8711 31.6968 70.8826 31.1037V26.1048C72.0123 26.7827 73.3679 27.3334 74.9495 27.757C76.531 28.1807 77.9996 28.3925 79.3553 28.3925C80.5132 28.3925 81.3605 28.2936 81.8971 28.0959C82.4337 27.8982 82.702 27.5311 82.702 26.9945C82.702 26.5708 82.5467 26.2319 82.236 25.9778C81.9253 25.6953 81.4452 25.4553 80.7956 25.2576C80.1743 25.0316 79.1293 24.7069 77.6607 24.2832C75.938 23.7749 74.5823 23.2665 73.5938 22.7581C72.6336 22.2215 71.8993 21.5578 71.3909 20.767C70.9108 19.9763 70.6708 18.9595 70.6708 17.7169C70.6708 15.5987 71.5039 14.0171 73.1702 12.9722C74.8647 11.8989 77.1524 11.3623 80.0331 11.3623C81.4452 11.3623 82.8997 11.5177 84.3965 11.8283C85.9216 12.1108 87.0937 12.492 87.9127 12.9722V17.844C87.0937 17.3074 86.0205 16.8696 84.6931 16.5307C83.3939 16.1918 82.123 16.0223 80.8804 16.0223C79.7224 16.0223 78.8187 16.1353 78.1691 16.3612C77.5478 16.5872 77.2371 17.0108 77.2371 17.6321C77.2371 18.1687 77.5336 18.5783 78.1267 18.8607C78.7481 19.1431 79.8919 19.4961 81.5582 19.9198L82.4055 20.1316C84.1847 20.6117 85.5686 21.1483 86.5571 21.7414C87.5456 22.3063 88.2375 22.9982 88.6329 23.8172C89.0565 24.608 89.2683 25.6106 89.2683 26.825C89.2683 28.689 88.4634 30.1859 86.8536 31.3156C85.2438 32.417 82.9138 32.9677 79.8636 32.9677Z" fill="white"/>
<path d="M104.134 32.9677C100.237 32.9677 97.1722 32.0357 94.9411 30.1717C92.7099 28.2795 91.5944 25.6388 91.5944 22.2498C91.5944 18.8889 92.5828 16.2341 94.5598 14.2854C96.565 12.3367 99.4175 11.3623 103.117 11.3623C105.546 11.3623 107.608 11.8142 109.302 12.718C110.997 13.6217 112.282 14.8785 113.157 16.4883C114.033 18.0699 114.471 19.8633 114.471 21.8685V24.4527H97.6947C98.1466 27.051 100.575 28.3501 104.981 28.3501C106.28 28.3501 107.622 28.2371 109.006 28.0112C110.39 27.7853 111.59 27.4746 112.607 27.0792V31.5697C111.618 31.9934 110.347 32.3323 108.794 32.5865C107.241 32.8407 105.687 32.9677 104.134 32.9677ZM108.413 20.301C108.328 18.9454 107.82 17.9004 106.888 17.1661C105.956 16.4036 104.671 16.0223 103.033 16.0223C101.423 16.0223 100.152 16.4036 99.2198 17.1661C98.2878 17.9287 97.7794 18.9737 97.6947 20.301H108.413Z" fill="white"/>
<path d="M125.168 32.9677C122.683 32.9677 120.649 32.3464 119.068 31.1037C117.514 29.8328 116.738 28.1101 116.738 25.9354C116.738 23.676 117.486 21.925 118.983 20.6823C120.48 19.4114 122.598 18.776 125.338 18.776C126.552 18.776 127.71 18.903 128.811 19.1572C129.913 19.4114 130.887 19.7644 131.734 20.2163V19.708C131.734 18.437 131.283 17.5051 130.379 16.912C129.475 16.3189 128.091 16.0223 126.227 16.0223C123.742 16.0223 121.454 16.4883 119.364 17.4203V12.7603C120.268 12.3649 121.44 12.0402 122.88 11.786C124.321 11.5036 125.761 11.3623 127.202 11.3623C130.873 11.3623 133.613 12.1249 135.42 13.65C137.228 15.1468 138.131 17.2509 138.131 19.9621V32.3323H132.116V30.4683C130.393 32.1346 128.077 32.9677 125.168 32.9677ZM126.905 28.7314C127.95 28.7314 128.896 28.5337 129.743 28.1383C130.591 27.7429 131.254 27.1922 131.734 26.4861V24.4527C130.294 23.4924 128.713 23.0123 126.99 23.0123C125.804 23.0123 124.886 23.2665 124.236 23.7749C123.615 24.255 123.304 24.9752 123.304 25.9354C123.304 26.8391 123.615 27.5311 124.236 28.0112C124.857 28.4913 125.747 28.7314 126.905 28.7314Z" fill="white"/>
</g>
<defs>
<filter id="filter0_dd_11011_217781" x="0" y="0" width="140.131" height="37" filterUnits="userSpaceOnUse" color-interpolation-filters="sRGB">
<feFlood flood-opacity="0" result="BackgroundImageFix"/>
<feColorMatrix in="SourceAlpha" type="matrix" values="0 0 0 0 0 0 0 0 0 0 0 0 0 0 0 0 0 0 127 0" result="hardAlpha"/>
<feOffset/>
<feGaussianBlur stdDeviation="1"/>
<feComposite in2="hardAlpha" operator="out"/>
<feColorMatrix type="matrix" values="0 0 0 0 0 0 0 0 0 0 0 0 0 0 0 0 0 0 0.12 0"/>
<feBlend mode="normal" in2="BackgroundImageFix" result="effect1_dropShadow_11011_217781"/>
<feColorMatrix in="SourceAlpha" type="matrix" values="0 0 0 0 0 0 0 0 0 0 0 0 0 0 0 0 0 0 127 0" result="hardAlpha"/>
<feOffset dy="1"/>
<feGaussianBlur stdDeviation="1"/>
<feComposite in2="hardAlpha" operator="out"/>
<feColorMatrix type="matrix" values="0 0 0 0 0 0 0 0 0 0 0 0 0 0 0 0 0 0 0.14 0"/>
<feBlend mode="normal" in2="effect1_dropShadow_11011_217781" result="effect2_dropShadow_11011_217781"/>
<feBlend mode="normal" in="SourceGraphic" in2="effect2_dropShadow_11011_217781" result="shape"/>
</filter>
</defs>
</svg>
