<svg width="254" height="24" viewBox="0 0 254 24" fill="none" xmlns="http://www.w3.org/2000/svg">
<path d="M35.3631 21.8779C35.829 21.8779 36.218 21.8212 36.5354 21.7076C36.8528 21.594 37.1036 21.4443 37.293 21.2585C37.4824 21.0726 37.6207 20.8506 37.7026 20.6028C37.7845 20.355 37.8254 20.0866 37.8254 19.8078C37.8254 19.5291 37.7793 19.2503 37.6872 19.0128C37.5951 18.7805 37.4466 18.5792 37.2521 18.414C37.0524 18.2488 36.7965 18.1197 36.4842 18.032C36.1719 17.9442 35.7931 17.9029 35.3529 17.9029H32.8343V21.8779H35.3631ZM32.8343 12.2346V16.1528H34.8256C35.6805 16.1528 36.3255 15.998 36.7658 15.6831C37.2009 15.3682 37.421 14.8726 37.421 14.1911C37.421 13.5097 37.2214 12.9831 36.8272 12.6786C36.433 12.3791 35.8085 12.2294 34.969 12.2294H32.8394L32.8343 12.2346ZM34.9638 10.2832C35.8443 10.2832 36.5968 10.3658 37.2265 10.5362C37.851 10.7065 38.368 10.944 38.7673 11.2589C39.1666 11.5738 39.4584 11.9507 39.6478 12.3946C39.8321 12.8386 39.9242 13.3393 39.9242 13.8969C39.9242 14.2169 39.8782 14.5215 39.786 14.8106C39.6939 15.0997 39.5506 15.3733 39.3509 15.6263C39.1564 15.8792 38.9055 16.1115 38.6086 16.318C38.3066 16.5245 37.9483 16.7001 37.5336 16.8446C39.3816 17.2628 40.3031 18.2694 40.3031 19.8646C40.3031 20.4376 40.1956 20.9694 39.9754 21.4598C39.7604 21.9451 39.443 22.3684 39.0284 22.7194C38.6138 23.0705 38.1018 23.3492 37.4927 23.5506C36.8835 23.7519 36.1924 23.85 35.4092 23.85H30.3311V10.2832H34.9638Z" fill="#3E4F8C"/>
<path d="M50.2746 14.2227V23.8454H48.872C48.5699 23.8454 48.3754 23.706 48.2935 23.422L48.1348 22.6528C47.7458 23.0555 47.3106 23.3756 46.8397 23.6234C46.3687 23.8712 45.8159 23.9951 45.176 23.9951C44.6538 23.9951 44.1931 23.9073 43.7938 23.7266C43.3945 23.5511 43.0567 23.2981 42.7853 22.9729C42.514 22.6477 42.3042 22.2605 42.1659 21.8165C42.0277 21.3674 41.9561 20.877 41.9561 20.3401V14.2227H44.2545V20.3401C44.2545 20.9286 44.3876 21.3829 44.6589 21.703C44.9302 22.023 45.3347 22.1882 45.8722 22.1882C46.2663 22.1882 46.64 22.1005 46.9881 21.9198C47.3362 21.7391 47.6638 21.4965 47.9761 21.1816V14.2227H50.2746Z" fill="#3E4F8C"/>
<path d="M54.8407 9.91211V17.8932H55.2707C55.4243 17.8932 55.5471 17.8725 55.6393 17.8312C55.7314 17.7899 55.8185 17.7073 55.9157 17.5834L58.2859 14.6305C58.3831 14.5015 58.4957 14.3982 58.6135 14.3311C58.7363 14.264 58.8899 14.2279 59.0844 14.2279H61.1884L58.2193 17.8002C58.0094 18.0842 57.7791 18.2958 57.5334 18.4455C57.6613 18.5385 57.7791 18.6469 57.8815 18.7759C57.9838 18.8998 58.0811 19.0341 58.1732 19.1786L61.3522 23.8506H59.279C59.0998 23.8506 58.9462 23.8196 58.8131 23.7628C58.6851 23.7009 58.5725 23.5976 58.4855 23.4376L56.0488 19.7878C55.9618 19.6432 55.8696 19.5503 55.7775 19.509C55.6854 19.4677 55.5471 19.4419 55.3577 19.4419H54.8356V23.8506H52.5371V9.91211H54.8356H54.8407Z" fill="#3E4F8C"/>
<path d="M64.8646 14.2226V23.8453H62.5559V14.2226H64.8646ZM65.182 11.4194C65.182 11.6207 65.141 11.8066 65.0591 11.9821C64.9772 12.1576 64.8697 12.3125 64.7366 12.4415C64.6035 12.5706 64.4449 12.679 64.2657 12.7564C64.0865 12.8339 63.892 12.8752 63.6872 12.8752C63.4825 12.8752 63.3033 12.8339 63.1241 12.7564C62.9501 12.679 62.7965 12.5758 62.6634 12.4415C62.5354 12.3125 62.4279 12.1576 62.3511 11.9821C62.2744 11.8066 62.2334 11.6207 62.2334 11.4194C62.2334 11.2181 62.2744 11.0167 62.3511 10.836C62.4279 10.6554 62.5303 10.5005 62.6634 10.3663C62.7914 10.2372 62.945 10.1288 63.1241 10.0514C63.3033 9.97392 63.4876 9.93262 63.6872 9.93262C63.8869 9.93262 64.0814 9.97392 64.2657 10.0514C64.4449 10.1288 64.6035 10.232 64.7366 10.3663C64.8697 10.4953 64.9772 10.6554 65.0591 10.836C65.141 11.0167 65.182 11.2129 65.182 11.4194Z" fill="#3E4F8C"/>
<path d="M70.393 23.9994C69.5637 23.9994 68.9238 23.762 68.4836 23.2922C68.0382 22.8224 67.8181 22.1668 67.8181 21.3356V15.9616H66.8404C66.7175 15.9616 66.61 15.9203 66.523 15.8377C66.436 15.7551 66.395 15.6364 66.395 15.4712V14.5523L67.9307 14.2993L68.4119 11.6716C68.4427 11.5477 68.5041 11.4497 68.586 11.3825C68.673 11.3154 68.7856 11.2793 68.9187 11.2793H70.1115V14.3096H72.6608V15.9616H70.1115V21.1756C70.1115 21.475 70.1831 21.7125 70.3316 21.8777C70.4749 22.0481 70.6797 22.1307 70.9305 22.1307C71.0739 22.1307 71.1916 22.1152 71.2889 22.079C71.3861 22.0429 71.468 22.0068 71.5397 21.9706C71.6114 21.9345 71.6728 21.8983 71.7291 21.8622C71.7854 21.8261 71.8417 21.8106 71.898 21.8106C71.9646 21.8106 72.0209 21.8261 72.067 21.8622C72.1079 21.8983 72.1591 21.95 72.2052 22.0171L72.8911 23.1425C72.5584 23.4264 72.1694 23.6381 71.7393 23.7826C71.3042 23.9272 70.8537 23.9994 70.393 23.9994Z" fill="#3E4F8C"/>
<path d="M82.231 18.7804L80.3881 13.8451C80.2397 13.4631 80.0861 12.9778 79.9325 12.3893C79.866 12.6836 79.7892 12.952 79.7073 13.1998C79.6254 13.4476 79.5537 13.6644 79.4821 13.8503L77.6392 18.7752H82.2259L82.231 18.7804ZM86.3519 23.8447H84.6677C84.4732 23.8447 84.3196 23.7982 84.2019 23.7001C84.0841 23.602 83.992 23.4833 83.9306 23.3388L82.8146 20.3549H77.0505L75.9345 23.3388C75.8833 23.4627 75.7963 23.5814 75.6735 23.6846C75.5506 23.793 75.397 23.8447 75.2076 23.8447H73.5234L78.8319 10.3398H81.0383L86.3468 23.8447H86.3519Z" fill="#3E4F8C"/>
<path d="M93.2036 16.0142C93.1524 16.1019 93.0961 16.1639 93.0347 16.2C92.9733 16.2361 92.8965 16.2568 92.8043 16.2568C92.6968 16.2568 92.5842 16.2258 92.4614 16.1587C92.3385 16.0916 92.1901 16.0193 92.0262 15.9367C91.8573 15.8541 91.6628 15.7818 91.4375 15.7147C91.2123 15.6476 90.9461 15.6167 90.6441 15.6167C90.3984 15.6167 90.1731 15.6476 89.9684 15.7044C89.7687 15.7664 89.5947 15.849 89.4565 15.9574C89.3182 16.0658 89.2107 16.1948 89.134 16.3394C89.0572 16.4839 89.0213 16.644 89.0213 16.8143C89.0213 17.0415 89.0879 17.2273 89.2261 17.377C89.3643 17.5267 89.5435 17.6558 89.7636 17.7642C89.9888 17.8726 90.2397 17.9707 90.5263 18.0585C90.813 18.1462 91.1048 18.2391 91.4017 18.3424C91.6986 18.4405 91.9904 18.5592 92.2771 18.6883C92.5637 18.8173 92.8146 18.9825 93.0398 19.1735C93.2651 19.3646 93.4442 19.5969 93.5773 19.8653C93.7155 20.1389 93.7821 20.4693 93.7821 20.8565C93.7821 21.3056 93.7002 21.7238 93.5415 22.1058C93.3777 22.4878 93.1422 22.8182 92.8351 23.1021C92.5228 23.3861 92.1389 23.6029 91.6781 23.7578C91.2174 23.9126 90.6902 23.9901 90.0912 23.9901C89.7636 23.9901 89.4462 23.9591 89.1391 23.9023C88.8319 23.8403 88.5401 23.7629 88.2637 23.6597C87.9873 23.5564 87.7313 23.4325 87.4907 23.288C87.2501 23.1434 87.0402 22.9886 86.856 22.8182L87.3218 22.049C87.3781 21.9561 87.4498 21.8838 87.5317 21.827C87.6136 21.7754 87.7211 21.7496 87.8439 21.7496C87.9719 21.7496 88.105 21.7909 88.2279 21.8786C88.3559 21.9612 88.5043 22.0542 88.6732 22.1574C88.8422 22.2555 89.052 22.3484 89.2926 22.4362C89.5332 22.5188 89.8353 22.5652 90.1936 22.5652C90.4905 22.5652 90.7465 22.5291 90.9666 22.4568C91.1816 22.3846 91.3608 22.2865 91.5041 22.1626C91.6474 22.0387 91.7498 21.8941 91.8215 21.7341C91.888 21.5741 91.9239 21.4037 91.9239 21.223C91.9239 20.9804 91.8573 20.779 91.7191 20.6242C91.5809 20.4693 91.4017 20.3351 91.1765 20.2215C90.9512 20.1079 90.6953 20.0099 90.4035 19.9221C90.1168 19.8343 89.8199 19.7414 89.523 19.6382C89.2261 19.5401 88.9343 19.4213 88.6425 19.2923C88.3559 19.1632 88.0948 18.9929 87.8695 18.7915C87.6443 18.5902 87.46 18.3424 87.3269 18.0481C87.1887 17.759 87.1222 17.4028 87.1222 16.9847C87.1222 16.6027 87.1989 16.2413 87.3525 15.8954C87.5061 15.5495 87.7262 15.2501 88.0231 14.9868C88.32 14.7236 88.6784 14.5171 89.1135 14.3622C89.5435 14.2073 90.04 14.1299 90.6083 14.1299C91.2481 14.1299 91.8266 14.2331 92.3487 14.4396C92.8709 14.6461 93.306 14.9249 93.6592 15.2863L93.2139 16.0193L93.2036 16.0142Z" fill="#3E4F8C"/>
<path d="M100.728 19.6637C100.016 19.6895 99.4121 19.7463 98.9258 19.8392C98.4344 19.9321 98.0402 20.0457 97.7331 20.1851C97.431 20.3245 97.2109 20.4948 97.0778 20.6859C96.9447 20.882 96.8782 21.0937 96.8782 21.326C96.8782 21.5583 96.914 21.7441 96.9857 21.9042C97.0573 22.0642 97.1546 22.1933 97.2826 22.2965C97.4106 22.3998 97.559 22.4772 97.7279 22.5237C97.8969 22.5701 98.0863 22.5959 98.291 22.5959C98.8132 22.5959 99.2586 22.4979 99.6374 22.3017C100.011 22.1055 100.375 21.8164 100.728 21.4447V19.674V19.6637ZM95.4243 15.6112C96.4994 14.6045 97.774 14.0986 99.2585 14.0986C99.8063 14.0986 100.287 14.1864 100.712 14.3671C101.137 14.5478 101.496 14.7956 101.782 15.1208C102.069 15.446 102.289 15.8332 102.443 16.2772C102.596 16.7263 102.668 17.2219 102.668 17.7639V23.8401H101.777C101.583 23.8401 101.439 23.8091 101.342 23.7523C101.245 23.6904 101.158 23.5716 101.091 23.3909L100.897 22.6114C100.656 22.8282 100.415 23.0244 100.18 23.1999C99.9445 23.3703 99.6988 23.5148 99.448 23.6387C99.1971 23.7575 98.9258 23.8452 98.6391 23.9072C98.3525 23.964 98.0351 23.9949 97.687 23.9949C97.3031 23.9949 96.9447 23.9433 96.612 23.8349C96.2792 23.7265 95.9926 23.5665 95.752 23.3496C95.5114 23.1328 95.3168 22.8644 95.1786 22.5495C95.0404 22.2294 94.9688 21.8577 94.9688 21.4241C94.9688 21.0575 95.066 20.6962 95.2605 20.3451C95.4551 19.9941 95.7776 19.6792 96.228 19.4004C96.6785 19.1216 97.2672 18.8945 98.0044 18.7087C98.7415 18.528 99.6476 18.4247 100.723 18.3989V17.7588C100.723 17.0722 100.579 16.5559 100.287 16.2204C99.9957 15.8848 99.5657 15.7145 99.0026 15.7145C98.6187 15.7145 98.2962 15.7609 98.0351 15.859C97.774 15.9571 97.5488 16.0603 97.3542 16.1739C97.1597 16.2875 96.9908 16.3907 96.8423 16.4888C96.6939 16.5869 96.5352 16.6334 96.3663 16.6334C96.228 16.6334 96.1154 16.5972 96.0182 16.525C95.9209 16.4527 95.8441 16.3649 95.7827 16.2565L95.4192 15.6009L95.4243 15.6112Z" fill="#3E4F8C"/>
<path d="M105.007 23.8507V14.2796H106.215C106.486 14.2796 106.66 14.4087 106.737 14.6616L106.865 15.4979C107.039 15.2966 107.218 15.1159 107.403 14.9507C107.587 14.7855 107.786 14.641 108.001 14.5171C108.216 14.3932 108.447 14.3002 108.687 14.2331C108.933 14.166 109.199 14.1299 109.481 14.1299C109.783 14.1299 110.064 14.1763 110.32 14.2589C110.576 14.3467 110.802 14.4706 110.996 14.6358C111.191 14.801 111.36 14.9972 111.503 15.2243C111.646 15.4566 111.764 15.7147 111.856 16.0038C112 15.6734 112.179 15.3895 112.394 15.152C112.609 14.9146 112.854 14.7184 113.121 14.5687C113.387 14.419 113.668 14.3054 113.97 14.2383C114.272 14.166 114.574 14.1299 114.887 14.1299C115.393 14.1299 115.849 14.2125 116.248 14.3725C116.648 14.5377 116.986 14.77 117.262 15.0798C117.538 15.3895 117.748 15.7715 117.892 16.2207C118.035 16.6698 118.107 17.186 118.107 17.759V23.8455H116.105V17.759C116.105 17.0828 115.962 16.5769 115.675 16.2361C115.388 15.8954 114.958 15.7251 114.395 15.7251C114.139 15.7251 113.904 15.7664 113.679 15.8541C113.453 15.9419 113.259 16.0709 113.095 16.2361C112.926 16.4065 112.798 16.6182 112.701 16.8711C112.604 17.1241 112.557 17.4183 112.557 17.759V23.8455H110.556V17.759C110.556 17.057 110.418 16.5459 110.136 16.2155C109.86 15.8851 109.45 15.7251 108.908 15.7251C108.534 15.7251 108.191 15.818 107.874 16.009C107.556 16.2 107.264 16.4633 106.998 16.7937V23.8455H104.997L105.007 23.8507Z" fill="#3E4F8C"/>
<path d="M132.092 7.20149C132.092 7.42348 131.913 7.60416 131.693 7.60416C131.473 7.60416 131.293 7.42348 131.293 7.20149C131.293 6.97951 131.473 6.79883 131.693 6.79883C131.913 6.79883 132.092 6.97951 132.092 7.20149Z" fill="#ED2227"/>
<path d="M132.312 15.7816C132.312 15.5596 132.132 15.3789 131.907 15.3789C131.682 15.3789 131.508 15.5596 131.508 15.7816C131.508 16.0036 131.687 16.1894 131.907 16.1894C132.127 16.1894 132.312 16.0087 132.312 15.7816Z" fill="#ED2227"/>
<path d="M132.456 11.5892C132.456 11.3672 132.276 11.1865 132.051 11.1865C131.826 11.1865 131.652 11.3672 131.652 11.5892C131.652 11.8112 131.831 11.9919 132.051 11.9919C132.271 11.9919 132.456 11.8112 132.456 11.5892Z" fill="#ED2227"/>
<path d="M133.03 8.012L132.344 8.51791C132.969 9.38003 133.338 10.4435 133.338 11.5895C133.338 12.7356 132.948 13.861 132.288 14.7334L132.964 15.2497C133.732 14.2327 134.187 12.9627 134.187 11.5844C134.187 10.206 133.757 9.00834 133.03 8.00684" fill="#ED2227"/>
<path d="M128.168 16.809H128.148V15.9365H128.168C130.16 15.9365 131.839 14.5685 132.335 12.7152H131.45C130.984 14.0884 129.689 15.0796 128.173 15.0796C126.264 15.0796 124.708 13.5154 124.708 11.5898C124.708 9.66424 126.264 8.09487 128.173 8.09487C129.694 8.09487 130.984 9.08605 131.45 10.4592H132.335C131.844 8.60595 130.16 7.23791 128.168 7.23791H128.148V6.37063H128.168C128.926 6.37063 129.643 6.53583 130.293 6.83008L130.641 6.05056C129.888 5.70468 129.049 5.51367 128.168 5.51367C124.846 5.51367 122.143 8.23942 122.143 11.5898C122.143 14.9402 124.846 17.666 128.168 17.666C129.315 17.666 130.385 17.3407 131.301 16.778L130.861 16.045C130.078 16.5302 129.156 16.809 128.168 16.809Z" fill="#ED2227"/>
<path d="M12.5558 3.34007C12.5558 3.34007 17.4599 -0.221983 22.19 4.32093C25.7426 7.73327 23.782 16.4526 18.9957 16.4526C18.9957 16.4526 18.0742 16.6694 15.7757 15.5853C13.4773 14.5012 10.8051 13.7629 7.49304 15.864C4.18098 17.9703 -0.508108 15.6163 0.0447549 7.17573C0.305829 3.13357 3.44895 0 3.44895 0H12.003C12.003 0 7.06816 4.5584 7.06816 8.29597C7.06816 12.0335 9.95021 13.5461 12.0081 13.5461C14.066 13.5461 17.1579 12.0129 17.1579 8.29597C17.1579 4.57905 13.8151 3.40202 12.5558 3.34007Z" fill="#FEC716"/>
<path d="M0 15.3527V23.8449H24.0086V15.0791C24.0086 15.0791 23.0615 18.4192 18.5721 18.4192C14.9171 18.4192 14.3335 16.1477 11.9992 16.1477C9.66486 16.1477 9.13247 18.2798 4.56112 18.2798C1.25418 18.2798 0 15.3527 0 15.3527Z" fill="#ED2227"/>
<path d="M150.187 6L162.187 18M162.187 6L150.187 18" stroke="black"/>
<g clip-path="url(#clip0_9979_40588)">
<path d="M190.832 2.23569C190.353 2.2105 189.872 2.2105 189.393 2.23569C187.337 2.21479 185.323 2.81993 183.614 3.97197C181.895 5.1783 180.52 6.81865 179.627 8.72889C178.682 10.6767 178.19 12.816 178.188 14.9843C178.17 16.489 178.409 17.9856 178.896 19.4082C179.341 20.7078 180.163 21.8429 181.255 22.6667C182.539 23.5637 184.082 24.007 185.642 23.9273C186.22 23.9357 186.796 23.8879 187.364 23.7846C187.987 23.6732 188.601 23.5223 189.204 23.3327C189.749 23.1644 190.285 22.9659 190.808 22.738C191.188 22.5808 191.545 22.3728 191.87 22.1196L191.209 18.6709C190.873 18.9127 190.509 19.1124 190.124 19.2655C189.636 19.4698 189.131 19.629 188.615 19.7412C188.073 19.8644 187.519 19.9282 186.963 19.9315C186.205 19.9716 185.451 19.7899 184.793 19.4082C184.214 19.0256 183.781 18.455 183.566 17.7908C183.277 16.8848 183.141 15.9359 183.165 14.9843C183.155 13.5498 183.362 12.1222 183.779 10.7506C184.114 9.53041 184.765 8.42219 185.666 7.53966C186.098 7.13124 186.606 6.81363 187.161 6.60536C187.716 6.39709 188.306 6.30235 188.898 6.32665C189.707 6.30623 190.511 6.4603 191.257 6.77855C191.843 7.02916 192.385 7.37462 192.861 7.80129L194.276 3.04437C193.521 2.85409 192.884 2.66381 192.342 2.5211C191.847 2.38653 191.342 2.2911 190.832 2.23569Z" fill="black"/>
<path d="M211.473 6.30248C211.928 6.1095 212.419 6.02016 212.912 6.04085C213.611 6.04756 214.304 6.16803 214.964 6.39762C215.525 6.56582 216.041 6.8584 216.474 7.25387L218.031 3.35319C217.429 2.95185 216.756 2.66937 216.05 2.52072C215.071 2.26498 214.064 2.13708 213.054 2.14017C211.749 2.12642 210.456 2.38558 209.256 2.90128C208.191 3.34796 207.281 4.10071 206.637 5.06568C205.961 6.0829 205.622 7.29057 205.67 8.51445C205.663 9.28305 205.816 10.0446 206.118 10.7502C206.442 11.4565 206.863 12.1131 207.369 12.7006C207.931 13.3174 208.547 13.8825 209.209 14.3893C209.897 14.8988 210.544 15.4635 211.143 16.078C211.508 16.4657 211.741 16.9604 211.809 17.4905C211.877 18.0207 211.776 18.5588 211.52 19.0273C211.298 19.37 210.977 19.6357 210.6 19.7884C210.081 19.987 209.527 20.076 208.973 20.05C208.487 20.0524 208.003 19.9884 207.534 19.8597C207.04 19.7172 206.559 19.5342 206.095 19.3127C205.677 19.1288 205.281 18.8974 204.915 18.6229L203.288 22.6663C203.582 22.8634 203.898 23.0232 204.231 23.142C204.716 23.3192 205.213 23.4622 205.717 23.5701C206.261 23.7055 206.813 23.8087 207.369 23.8793C207.822 23.9484 208.279 23.9882 208.737 23.9983C210.145 24.0197 211.544 23.7777 212.865 23.2847C214.012 22.8588 215.011 22.107 215.743 21.1203C216.481 20.0207 216.853 18.7129 216.804 17.3861C216.815 16.6453 216.653 15.9123 216.333 15.2455C215.976 14.5502 215.523 13.9095 214.988 13.3427C214.354 12.6937 213.676 12.0897 212.959 11.5351L211.638 10.3934C211.277 10.0637 210.96 9.6879 210.695 9.27556C210.462 8.91324 210.332 8.49392 210.317 8.06255C210.325 7.70722 210.431 7.36116 210.624 7.06359C210.824 6.72893 211.12 6.46349 211.473 6.30248Z" fill="black"/>
<path d="M234.308 6.20823L234.827 2.37891H222.183L219.163 23.6899H232.845L233.34 19.7893L224.589 19.932L225.367 14.5329L231.17 14.6518L231.666 10.7987L225.863 10.8938L226.547 6.18445L234.308 6.20823Z" fill="black"/>
<path d="M250.82 2.37891H244.593L234.378 23.7851H239.757L241.385 19.7892H248.627L248.957 23.7851H253.863L250.82 2.37891ZM242.729 16.3643L246.551 6.85041L247.093 5.18549V6.85041L248.155 16.3643H242.729Z" fill="black"/>
<path d="M200.268 0C199.802 0 199.346 0.139494 198.958 0.400843C198.57 0.662192 198.267 1.03366 198.089 1.46826C197.91 1.90287 197.863 2.3811 197.955 2.84248C198.046 3.30386 198.27 3.72766 198.6 4.06029C198.93 4.39293 199.35 4.61945 199.808 4.71123C200.266 4.803 200.74 4.7559 201.171 4.57588C201.602 4.39586 201.97 4.091 202.23 3.69987C202.489 3.30873 202.627 2.84888 202.627 2.37846C202.627 1.74766 202.379 1.14268 201.936 0.696636C201.494 0.250587 200.894 0 200.268 0V0Z" fill="black"/>
<path d="M197.508 4.75684L194.701 23.7845H199.702L202.297 5.51794C201.694 5.91767 200.989 6.13249 200.268 6.13634C199.735 6.12763 199.211 5.99929 198.733 5.76066C198.256 5.52203 197.837 5.17911 197.508 4.75684Z" fill="black"/>
</g>
<defs>
<clipPath id="clip0_9979_40588">
<rect width="75.68" height="24" fill="white" transform="translate(178.187)"/>
</clipPath>
</defs>
</svg>
