<svg width="254" height="24" viewBox="0 0 254 24" fill="none" xmlns="http://www.w3.org/2000/svg">
<path d="M35.3641 21.8779C35.8299 21.8779 36.219 21.8212 36.5364 21.7076C36.8538 21.594 37.1046 21.4443 37.294 21.2585C37.4834 21.0726 37.6216 20.8506 37.7035 20.6028C37.7854 20.355 37.8264 20.0866 37.8264 19.8078C37.8264 19.5291 37.7803 19.2503 37.6882 19.0128C37.596 18.7805 37.4476 18.5792 37.2531 18.414C37.0534 18.2488 36.7975 18.1197 36.4852 18.032C36.1729 17.9442 35.7941 17.9029 35.3539 17.9029H32.8353V21.8779H35.3641ZM32.8353 12.2346V16.1528H34.8266C35.6815 16.1528 36.3265 15.998 36.7667 15.6831C37.2019 15.3682 37.422 14.8726 37.422 14.1911C37.422 13.5097 37.2223 12.9831 36.8282 12.6786C36.434 12.3791 35.8095 12.2294 34.9699 12.2294H32.8404L32.8353 12.2346ZM34.9648 10.2832C35.8453 10.2832 36.5978 10.3658 37.2275 10.5362C37.852 10.7065 38.369 10.944 38.7683 11.2589C39.1676 11.5738 39.4594 11.9507 39.6488 12.3946C39.8331 12.8386 39.9252 13.3393 39.9252 13.8969C39.9252 14.2169 39.8792 14.5215 39.787 14.8106C39.6949 15.0997 39.5515 15.3733 39.3519 15.6263C39.1574 15.8792 38.9065 16.1115 38.6096 16.318C38.3076 16.5245 37.9492 16.7001 37.5346 16.8446C39.3826 17.2628 40.304 18.2694 40.304 19.8646C40.304 20.4376 40.1965 20.9694 39.9764 21.4598C39.7614 21.9451 39.444 22.3684 39.0294 22.7194C38.6147 23.0705 38.1028 23.3492 37.4936 23.5506C36.8845 23.7519 36.1934 23.85 35.4102 23.85H30.332V10.2832H34.9648Z" fill="#3E4F8C"/>
<path d="M50.2756 14.2227V23.8454H48.8729C48.5709 23.8454 48.3764 23.706 48.2945 23.422L48.1358 22.6528C47.7467 23.0555 47.3116 23.3756 46.8407 23.6234C46.3697 23.8712 45.8168 23.9951 45.1769 23.9951C44.6548 23.9951 44.1941 23.9073 43.7948 23.7266C43.3955 23.5511 43.0576 23.2981 42.7863 22.9729C42.515 22.6477 42.3051 22.2605 42.1669 21.8165C42.0287 21.3674 41.957 20.877 41.957 20.3401V14.2227H44.2555V20.3401C44.2555 20.9286 44.3886 21.3829 44.6599 21.703C44.9312 22.023 45.3356 22.1882 45.8731 22.1882C46.2673 22.1882 46.641 22.1005 46.9891 21.9198C47.3372 21.7391 47.6648 21.4965 47.9771 21.1816V14.2227H50.2756Z" fill="#3E4F8C"/>
<path d="M54.8388 9.91211V17.8932H55.2688C55.4223 17.8932 55.5452 17.8725 55.6373 17.8312C55.7295 17.7899 55.8165 17.7073 55.9138 17.5834L58.2839 14.6305C58.3812 14.5015 58.4938 14.3982 58.6115 14.3311C58.7344 14.264 58.888 14.2279 59.0825 14.2279H61.1864L58.2174 17.8002C58.0075 18.0842 57.7771 18.2958 57.5314 18.4455C57.6594 18.5385 57.7771 18.6469 57.8795 18.7759C57.9819 18.8998 58.0791 19.0341 58.1713 19.1786L61.3502 23.8506H59.277C59.0978 23.8506 58.9443 23.8196 58.8112 23.7628C58.6832 23.7009 58.5706 23.5976 58.4836 23.4376L56.0469 19.7878C55.9598 19.6432 55.8677 19.5503 55.7755 19.509C55.6834 19.4677 55.5452 19.4419 55.3558 19.4419H54.8336V23.8506H52.5352V9.91211H54.8336H54.8388Z" fill="#3E4F8C"/>
<path d="M64.8656 14.2226V23.8453H62.5569V14.2226H64.8656ZM65.183 11.4194C65.183 11.6207 65.142 11.8066 65.0601 11.9821C64.9782 12.1576 64.8707 12.3125 64.7376 12.4415C64.6045 12.5706 64.4458 12.679 64.2667 12.7564C64.0875 12.8339 63.893 12.8752 63.6882 12.8752C63.4834 12.8752 63.3043 12.8339 63.1251 12.7564C62.951 12.679 62.7975 12.5758 62.6644 12.4415C62.5364 12.3125 62.4289 12.1576 62.3521 11.9821C62.2753 11.8066 62.2344 11.6207 62.2344 11.4194C62.2344 11.2181 62.2753 11.0167 62.3521 10.836C62.4289 10.6554 62.5313 10.5005 62.6644 10.3663C62.7924 10.2372 62.9459 10.1288 63.1251 10.0514C63.3043 9.97392 63.4886 9.93262 63.6882 9.93262C63.8878 9.93262 64.0824 9.97392 64.2667 10.0514C64.4458 10.1288 64.6045 10.232 64.7376 10.3663C64.8707 10.4953 64.9782 10.6554 65.0601 10.836C65.142 11.0167 65.183 11.2129 65.183 11.4194Z" fill="#3E4F8C"/>
<path d="M70.3925 23.9994C69.5632 23.9994 68.9234 23.762 68.4831 23.2922C68.0378 22.8224 67.8176 22.1668 67.8176 21.3356V15.9616H66.8399C66.717 15.9616 66.6095 15.9203 66.5225 15.8377C66.4355 15.7551 66.3945 15.6364 66.3945 15.4712V14.5523L67.9303 14.2993L68.4115 11.6716C68.4422 11.5477 68.5036 11.4497 68.5855 11.3825C68.6725 11.3154 68.7851 11.2793 68.9182 11.2793H70.111V14.3096H72.6603V15.9616H70.111V21.1756C70.111 21.475 70.1827 21.7125 70.3311 21.8777C70.4744 22.0481 70.6792 22.1307 70.93 22.1307C71.0734 22.1307 71.1911 22.1152 71.2884 22.079C71.3856 22.0429 71.4675 22.0068 71.5392 21.9706C71.6109 21.9345 71.6723 21.8983 71.7286 21.8622C71.7849 21.8261 71.8412 21.8106 71.8975 21.8106C71.9641 21.8106 72.0204 21.8261 72.0665 21.8622C72.1074 21.8983 72.1586 21.95 72.2047 22.0171L72.8907 23.1425C72.5579 23.4264 72.1689 23.6381 71.7389 23.7826C71.3037 23.9272 70.8533 23.9994 70.3925 23.9994Z" fill="#3E4F8C"/>
<path d="M82.231 18.7804L80.3881 13.8451C80.2397 13.4631 80.0861 12.9778 79.9325 12.3893C79.866 12.6836 79.7892 12.952 79.7073 13.1998C79.6254 13.4476 79.5537 13.6644 79.4821 13.8503L77.6392 18.7752H82.2259L82.231 18.7804ZM86.3519 23.8447H84.6677C84.4732 23.8447 84.3196 23.7982 84.2019 23.7001C84.0841 23.602 83.992 23.4833 83.9306 23.3388L82.8146 20.3549H77.0505L75.9345 23.3388C75.8833 23.4627 75.7963 23.5814 75.6735 23.6846C75.5506 23.793 75.397 23.8447 75.2076 23.8447H73.5234L78.8319 10.3398H81.0383L86.3468 23.8447H86.3519Z" fill="#3E4F8C"/>
<path d="M93.2031 16.0142C93.152 16.1019 93.0956 16.1639 93.0342 16.2C92.9728 16.2361 92.896 16.2568 92.8039 16.2568C92.6963 16.2568 92.5837 16.2258 92.4609 16.1587C92.338 16.0916 92.1896 16.0193 92.0258 15.9367C91.8568 15.8541 91.6623 15.7818 91.4371 15.7147C91.2118 15.6476 90.9456 15.6167 90.6436 15.6167C90.3979 15.6167 90.1726 15.6476 89.9679 15.7044C89.7682 15.7664 89.5942 15.849 89.456 15.9574C89.3178 16.0658 89.2102 16.1948 89.1335 16.3394C89.0567 16.4839 89.0208 16.644 89.0208 16.8143C89.0208 17.0415 89.0874 17.2273 89.2256 17.377C89.3638 17.5267 89.543 17.6558 89.7631 17.7642C89.9884 17.8726 90.2392 17.9707 90.5259 18.0585C90.8125 18.1462 91.1043 18.2391 91.4012 18.3424C91.6981 18.4405 91.9899 18.5592 92.2766 18.6883C92.5633 18.8173 92.8141 18.9825 93.0393 19.1735C93.2646 19.3646 93.4437 19.5969 93.5768 19.8653C93.7151 20.1389 93.7816 20.4693 93.7816 20.8565C93.7816 21.3056 93.6997 21.7238 93.541 22.1058C93.3772 22.4878 93.1417 22.8182 92.8346 23.1021C92.5223 23.3861 92.1384 23.6029 91.6777 23.7578C91.2169 23.9126 90.6897 23.9901 90.0907 23.9901C89.7631 23.9901 89.4457 23.9591 89.1386 23.9023C88.8314 23.8403 88.5396 23.7629 88.2632 23.6597C87.9868 23.5564 87.7308 23.4325 87.4902 23.288C87.2496 23.1434 87.0398 22.9886 86.8555 22.8182L87.3213 22.049C87.3776 21.9561 87.4493 21.8838 87.5312 21.827C87.6131 21.7754 87.7206 21.7496 87.8435 21.7496C87.9714 21.7496 88.1045 21.7909 88.2274 21.8786C88.3554 21.9612 88.5038 22.0542 88.6727 22.1574C88.8417 22.2555 89.0516 22.3484 89.2922 22.4362C89.5328 22.5188 89.8348 22.5652 90.1931 22.5652C90.49 22.5652 90.746 22.5291 90.9661 22.4568C91.1811 22.3846 91.3603 22.2865 91.5036 22.1626C91.6469 22.0387 91.7493 21.8941 91.821 21.7341C91.8875 21.5741 91.9234 21.4037 91.9234 21.223C91.9234 20.9804 91.8568 20.779 91.7186 20.6242C91.5804 20.4693 91.4012 20.3351 91.176 20.2215C90.9507 20.1079 90.6948 20.0099 90.403 19.9221C90.1163 19.8343 89.8194 19.7414 89.5225 19.6382C89.2256 19.5401 88.9338 19.4213 88.642 19.2923C88.3554 19.1632 88.0943 18.9929 87.869 18.7915C87.6438 18.5902 87.4595 18.3424 87.3264 18.0481C87.1882 17.759 87.1217 17.4028 87.1217 16.9847C87.1217 16.6027 87.1984 16.2413 87.352 15.8954C87.5056 15.5495 87.7257 15.2501 88.0226 14.9868C88.3195 14.7236 88.6779 14.5171 89.113 14.3622C89.543 14.2073 90.0395 14.1299 90.6078 14.1299C91.2477 14.1299 91.8261 14.2331 92.3483 14.4396C92.8704 14.6461 93.3055 14.9249 93.6587 15.2863L93.2134 16.0193L93.2031 16.0142Z" fill="#3E4F8C"/>
<path d="M100.728 19.6637C100.016 19.6895 99.4121 19.7463 98.9258 19.8392C98.4344 19.9321 98.0402 20.0457 97.7331 20.1851C97.431 20.3245 97.2109 20.4948 97.0778 20.6859C96.9447 20.882 96.8782 21.0937 96.8782 21.326C96.8782 21.5583 96.914 21.7441 96.9857 21.9042C97.0573 22.0642 97.1546 22.1933 97.2826 22.2965C97.4106 22.3998 97.559 22.4772 97.7279 22.5237C97.8969 22.5701 98.0863 22.5959 98.291 22.5959C98.8132 22.5959 99.2586 22.4979 99.6374 22.3017C100.011 22.1055 100.375 21.8164 100.728 21.4447V19.674V19.6637ZM95.4243 15.6112C96.4994 14.6045 97.774 14.0986 99.2585 14.0986C99.8063 14.0986 100.287 14.1864 100.712 14.3671C101.137 14.5478 101.496 14.7956 101.782 15.1208C102.069 15.446 102.289 15.8332 102.443 16.2772C102.596 16.7263 102.668 17.2219 102.668 17.7639V23.8401H101.777C101.583 23.8401 101.439 23.8091 101.342 23.7523C101.245 23.6904 101.158 23.5716 101.091 23.3909L100.897 22.6114C100.656 22.8282 100.415 23.0244 100.18 23.1999C99.9445 23.3703 99.6988 23.5148 99.448 23.6387C99.1971 23.7575 98.9258 23.8452 98.6391 23.9072C98.3525 23.964 98.0351 23.9949 97.687 23.9949C97.3031 23.9949 96.9447 23.9433 96.612 23.8349C96.2792 23.7265 95.9926 23.5665 95.752 23.3496C95.5114 23.1328 95.3168 22.8644 95.1786 22.5495C95.0404 22.2294 94.9688 21.8577 94.9688 21.4241C94.9688 21.0575 95.066 20.6962 95.2605 20.3451C95.4551 19.9941 95.7776 19.6792 96.228 19.4004C96.6785 19.1216 97.2672 18.8945 98.0044 18.7087C98.7415 18.528 99.6476 18.4247 100.723 18.3989V17.7588C100.723 17.0722 100.579 16.5559 100.287 16.2204C99.9957 15.8848 99.5657 15.7145 99.0026 15.7145C98.6187 15.7145 98.2962 15.7609 98.0351 15.859C97.774 15.9571 97.5488 16.0603 97.3542 16.1739C97.1597 16.2875 96.9908 16.3907 96.8423 16.4888C96.6939 16.5869 96.5352 16.6334 96.3663 16.6334C96.228 16.6334 96.1154 16.5972 96.0182 16.525C95.9209 16.4527 95.8441 16.3649 95.7827 16.2565L95.4192 15.6009L95.4243 15.6112Z" fill="#3E4F8C"/>
<path d="M105.006 23.8507V14.2796H106.214C106.486 14.2796 106.66 14.4087 106.737 14.6616L106.865 15.4979C107.039 15.2966 107.218 15.1159 107.402 14.9507C107.586 14.7855 107.786 14.641 108.001 14.5171C108.216 14.3932 108.446 14.3002 108.687 14.2331C108.933 14.166 109.199 14.1299 109.48 14.1299C109.782 14.1299 110.064 14.1763 110.32 14.2589C110.576 14.3467 110.801 14.4706 110.996 14.6358C111.19 14.801 111.359 14.9972 111.502 15.2243C111.646 15.4566 111.764 15.7147 111.856 16.0038C111.999 15.6734 112.178 15.3895 112.393 15.152C112.608 14.9146 112.854 14.7184 113.12 14.5687C113.386 14.419 113.668 14.3054 113.97 14.2383C114.272 14.166 114.574 14.1299 114.886 14.1299C115.393 14.1299 115.849 14.2125 116.248 14.3725C116.647 14.5377 116.985 14.77 117.261 15.0798C117.538 15.3895 117.748 15.7715 117.891 16.2207C118.034 16.6698 118.106 17.186 118.106 17.759V23.8455H116.105V17.759C116.105 17.0828 115.961 16.5769 115.675 16.2361C115.388 15.8954 114.958 15.7251 114.395 15.7251C114.139 15.7251 113.903 15.7664 113.678 15.8541C113.453 15.9419 113.258 16.0709 113.094 16.2361C112.926 16.4065 112.798 16.6182 112.7 16.8711C112.603 17.1241 112.557 17.4183 112.557 17.759V23.8455H110.555V17.759C110.555 17.057 110.417 16.5459 110.136 16.2155C109.859 15.8851 109.45 15.7251 108.907 15.7251C108.533 15.7251 108.19 15.818 107.873 16.009C107.556 16.2 107.264 16.4633 106.998 16.7937V23.8455H104.996L105.006 23.8507Z" fill="#3E4F8C"/>
<path d="M132.092 7.20149C132.092 7.42348 131.912 7.60416 131.692 7.60416C131.472 7.60416 131.293 7.42348 131.293 7.20149C131.293 6.97951 131.472 6.79883 131.692 6.79883C131.912 6.79883 132.092 6.97951 132.092 7.20149Z" fill="#ED2227"/>
<path d="M132.312 15.7816C132.312 15.5596 132.132 15.3789 131.907 15.3789C131.682 15.3789 131.508 15.5596 131.508 15.7816C131.508 16.0036 131.687 16.1894 131.907 16.1894C132.127 16.1894 132.312 16.0087 132.312 15.7816Z" fill="#ED2227"/>
<path d="M132.456 11.5892C132.456 11.3672 132.277 11.1865 132.052 11.1865C131.826 11.1865 131.652 11.3672 131.652 11.5892C131.652 11.8112 131.832 11.9919 132.052 11.9919C132.272 11.9919 132.456 11.8112 132.456 11.5892Z" fill="#ED2227"/>
<path d="M133.031 8.012L132.345 8.51791C132.97 9.38003 133.338 10.4435 133.338 11.5895C133.338 12.7356 132.949 13.861 132.289 14.7334L132.965 15.2497C133.733 14.2327 134.188 12.9627 134.188 11.5844C134.188 10.206 133.758 9.00834 133.031 8.00684" fill="#ED2227"/>
<path d="M128.17 16.809H128.149V15.9365H128.17C130.161 15.9365 131.84 14.5685 132.337 12.7152H131.451C130.985 14.0884 129.69 15.0796 128.175 15.0796C126.265 15.0796 124.709 13.5154 124.709 11.5898C124.709 9.66424 126.265 8.09487 128.175 8.09487C129.695 8.09487 130.985 9.08605 131.451 10.4592H132.337C131.845 8.60595 130.161 7.23791 128.17 7.23791H128.149V6.37063H128.17C128.927 6.37063 129.644 6.53583 130.294 6.83008L130.642 6.05056C129.89 5.70468 129.05 5.51367 128.17 5.51367C124.847 5.51367 122.145 8.23942 122.145 11.5898C122.145 14.9402 124.847 17.666 128.17 17.666C129.316 17.666 130.386 17.3407 131.303 16.778L130.862 16.045C130.079 16.5302 129.158 16.809 128.17 16.809Z" fill="#ED2227"/>
<path d="M12.5558 3.34007C12.5558 3.34007 17.4599 -0.221983 22.19 4.32093C25.7426 7.73327 23.782 16.4526 18.9957 16.4526C18.9957 16.4526 18.0742 16.6694 15.7757 15.5853C13.4773 14.5012 10.8051 13.7629 7.49304 15.864C4.18098 17.9703 -0.508108 15.6163 0.0447549 7.17573C0.305829 3.13357 3.44895 0 3.44895 0H12.003C12.003 0 7.06816 4.5584 7.06816 8.29597C7.06816 12.0335 9.95021 13.5461 12.0081 13.5461C14.066 13.5461 17.1579 12.0129 17.1579 8.29597C17.1579 4.57905 13.8151 3.40202 12.5558 3.34007Z" fill="#FEC716"/>
<path d="M0 15.3527V23.8449H24.0086V15.0791C24.0086 15.0791 23.0615 18.4192 18.5721 18.4192C14.9171 18.4192 14.3335 16.1477 11.9992 16.1477C9.66486 16.1477 9.13247 18.2798 4.56112 18.2798C1.25418 18.2798 0 15.3527 0 15.3527Z" fill="#ED2227"/>
<path d="M150.188 6L162.188 18M162.188 6L150.188 18" stroke="white"/>
<g clip-path="url(#clip0_9979_16482)">
<path d="M190.833 2.23569C190.353 2.2105 189.873 2.2105 189.394 2.23569C187.338 2.21479 185.323 2.81993 183.614 3.97197C181.895 5.1783 180.52 6.81865 179.627 8.72889C178.683 10.6767 178.191 12.816 178.188 14.9843C178.17 16.489 178.41 17.9856 178.896 19.4082C179.342 20.7078 180.163 21.8429 181.255 22.6667C182.54 23.5637 184.082 24.007 185.643 23.9273C186.22 23.9357 186.797 23.8879 187.365 23.7846C187.987 23.6732 188.602 23.5223 189.205 23.3327C189.75 23.1644 190.286 22.9659 190.809 22.738C191.189 22.5808 191.546 22.3728 191.87 22.1196L191.21 18.6709C190.873 18.9127 190.509 19.1124 190.125 19.2655C189.637 19.4698 189.132 19.629 188.615 19.7412C188.073 19.8644 187.519 19.9282 186.964 19.9315C186.206 19.9716 185.452 19.7899 184.794 19.4082C184.214 19.0256 183.781 18.455 183.567 17.7908C183.277 16.8848 183.142 15.9359 183.166 14.9843C183.156 13.5498 183.362 12.1222 183.779 10.7506C184.115 9.53041 184.766 8.42219 185.666 7.53966C186.098 7.13124 186.606 6.81363 187.161 6.60536C187.716 6.39709 188.307 6.30235 188.898 6.32665C189.707 6.30623 190.512 6.4603 191.257 6.77855C191.843 7.02916 192.385 7.37462 192.861 7.80129L194.277 3.04437C193.522 2.85409 192.885 2.66381 192.342 2.5211C191.847 2.38653 191.342 2.2911 190.833 2.23569Z" fill="white"/>
<path d="M211.475 6.30248C211.929 6.1095 212.421 6.02016 212.914 6.04085C213.612 6.04756 214.305 6.16803 214.966 6.39762C215.526 6.56582 216.042 6.8584 216.476 7.25387L218.033 3.35319C217.43 2.95185 216.758 2.66937 216.051 2.52072C215.073 2.26498 214.066 2.13708 213.055 2.14017C211.751 2.12642 210.457 2.38558 209.257 2.90128C208.193 3.34796 207.282 4.10071 206.639 5.06568C205.962 6.0829 205.623 7.29057 205.672 8.51445C205.665 9.28305 205.818 10.0446 206.12 10.7502C206.443 11.4565 206.864 12.1131 207.37 12.7006C207.933 13.3174 208.548 13.8825 209.21 14.3893C209.899 14.8988 210.546 15.4635 211.144 16.078C211.509 16.4657 211.742 16.9604 211.81 17.4905C211.878 18.0207 211.777 18.5588 211.522 19.0273C211.3 19.37 210.979 19.6357 210.602 19.7884C210.083 19.987 209.529 20.076 208.974 20.05C208.488 20.0524 208.004 19.9884 207.535 19.8597C207.042 19.7172 206.56 19.5342 206.096 19.3127C205.678 19.1288 205.283 18.8974 204.917 18.6229L203.289 22.6663C203.583 22.8634 203.9 23.0232 204.233 23.142C204.718 23.3192 205.214 23.4622 205.719 23.5701C206.263 23.7055 206.814 23.8087 207.37 23.8793C207.823 23.9484 208.28 23.9882 208.738 23.9983C210.146 24.0197 211.546 23.7777 212.866 23.2847C214.013 22.8588 215.013 22.107 215.744 21.1203C216.482 20.0207 216.854 18.7129 216.806 17.3861C216.816 16.6453 216.655 15.9123 216.334 15.2455C215.978 14.5502 215.525 13.9095 214.99 13.3427C214.356 12.6937 213.678 12.0897 212.961 11.5351L211.64 10.3934C211.278 10.0637 210.961 9.6879 210.696 9.27556C210.464 8.91324 210.333 8.49392 210.319 8.06255C210.326 7.70722 210.433 7.36116 210.625 7.06359C210.825 6.72893 211.122 6.46349 211.475 6.30248Z" fill="white"/>
<path d="M234.309 6.20823L234.828 2.37891H222.184L219.164 23.6899H232.846L233.341 19.7893L224.59 19.932L225.368 14.5329L231.171 14.6518L231.667 10.7987L225.864 10.8938L226.548 6.18445L234.309 6.20823Z" fill="white"/>
<path d="M250.821 2.37891H244.593L234.379 23.7851H239.757L241.385 19.7892H248.627L248.957 23.7851H253.864L250.821 2.37891ZM242.73 16.3643L246.551 6.85041L247.094 5.18549V6.85041L248.155 16.3643H242.73Z" fill="white"/>
<path d="M200.269 0C199.803 0 199.346 0.139494 198.959 0.400843C198.571 0.662192 198.268 1.03366 198.09 1.46826C197.911 1.90287 197.864 2.3811 197.955 2.84248C198.047 3.30386 198.271 3.72766 198.601 4.06029C198.931 4.39293 199.351 4.61945 199.809 4.71123C200.266 4.803 200.741 4.7559 201.172 4.57588C201.603 4.39586 201.971 4.091 202.231 3.69987C202.49 3.30873 202.628 2.84888 202.628 2.37846C202.628 1.74766 202.38 1.14268 201.937 0.696636C201.495 0.250587 200.895 0 200.269 0V0Z" fill="white"/>
<path d="M197.51 4.75684L194.703 23.7845H199.704L202.299 5.51794C201.696 5.91767 200.992 6.13249 200.27 6.13634C199.737 6.12763 199.213 5.99929 198.736 5.76066C198.258 5.52203 197.84 5.17911 197.51 4.75684Z" fill="white"/>
</g>
<defs>
<clipPath id="clip0_9979_16482">
<rect width="75.68" height="24" fill="white" transform="translate(178.188)"/>
</clipPath>
</defs>
</svg>
