<svg width="168" height="24" viewBox="0 0 168 24" fill="none" xmlns="http://www.w3.org/2000/svg">
<g clip-path="url(#clip0_12654_314989)">
<path d="M44.373 20.8545V7.61328H49.0444C49.9267 7.61328 50.6812 7.69833 51.3079 7.86429C51.9346 8.03025 52.4438 8.26881 52.8396 8.57583C53.2354 8.88284 53.524 9.25625 53.7054 9.69395C53.8868 10.1317 53.9775 10.6212 53.9775 11.1627C53.9775 11.4676 53.9343 11.7601 53.8456 12.0381C53.759 12.3181 53.623 12.5816 53.4374 12.8264C53.254 13.0732 53.0169 13.2973 52.7262 13.4964C52.4355 13.6976 52.0913 13.8677 51.6913 14.0067C53.4457 14.4196 54.3218 15.3904 54.3218 16.9172C54.3218 17.4773 54.2146 17.9959 54.0002 18.4772C53.7858 18.9584 53.4725 19.3733 53.0622 19.7281C52.652 20.0807 52.1449 20.3566 51.5429 20.5537C50.941 20.7528 50.2504 20.8503 49.4711 20.8503H44.3751L44.373 20.8545ZM47.0942 13.2703H48.8815C49.2629 13.2703 49.601 13.2392 49.8978 13.1749C50.1947 13.1106 50.4421 13.011 50.642 12.8699C50.842 12.7289 50.9946 12.5463 51.0997 12.3161C51.2048 12.0879 51.2584 11.814 51.2584 11.4904C51.2584 11.1668 51.2151 10.8826 51.1265 10.6503C51.0399 10.42 50.9039 10.2333 50.7224 10.0943C50.541 9.95326 50.3122 9.85161 50.0318 9.78938C49.7535 9.72507 49.4258 9.69395 49.0444 9.69395H47.0942V13.2703ZM47.0942 15.1311V18.7552H49.4258C49.8607 18.7552 50.2194 18.7012 50.4998 18.5954C50.7802 18.4896 51.0049 18.3486 51.176 18.1722C51.345 17.9959 51.4625 17.7947 51.5306 17.5665C51.5965 17.3383 51.6295 17.1039 51.6295 16.8591C51.6295 16.5915 51.5903 16.3509 51.512 16.1372C51.4337 15.9235 51.3058 15.7431 51.1306 15.5937C50.9554 15.4443 50.7266 15.3302 50.4462 15.2514C50.1658 15.1726 49.8195 15.1311 49.4072 15.1311H47.0942Z" fill="#1B2E6A"/>
<path d="M58.321 11.4453V17.4239C58.321 17.9466 58.4406 18.3532 58.6797 18.6416C58.9188 18.9299 59.2734 19.0751 59.7455 19.0751C60.096 19.0751 60.4258 18.9984 60.733 18.8428C61.0422 18.6872 61.3349 18.4756 61.6132 18.208V11.4453H64.1159V20.855H62.5739C62.2523 20.855 62.0482 20.7098 61.9575 20.4173L61.7946 19.7597C61.4194 20.131 61.0092 20.4298 60.566 20.66C60.1228 20.8882 59.595 21.0023 58.9828 21.0023C58.4756 21.0023 58.0221 20.9152 57.6263 20.7388C57.2305 20.5625 56.8986 20.3157 56.6326 20.0003C56.3667 19.683 56.1647 19.3075 56.0266 18.8698C55.8864 18.4321 55.8184 17.9508 55.8184 17.428V11.4495H58.321V11.4453Z" fill="#1B2E6A"/>
<path d="M68.6861 7.24805V14.9692H69.1046C69.2613 14.9692 69.385 14.9463 69.4757 14.9007C69.5664 14.8551 69.6571 14.77 69.7478 14.6497L71.8155 11.8741C71.9186 11.7351 72.034 11.6293 72.1639 11.5546C72.2938 11.482 72.4587 11.4447 72.6586 11.4447H74.9448L72.2608 14.8758C72.0484 15.1621 71.8031 15.3861 71.5269 15.5521C71.6671 15.6496 71.7866 15.7616 71.8897 15.8902C71.9928 16.0167 72.0917 16.162 72.1886 16.3196L75.0809 20.8544H72.8318C72.638 20.8544 72.471 20.8232 72.3329 20.7589C72.1927 20.6946 72.0794 20.5805 71.9887 20.4167L69.8859 16.9585C69.8014 16.8133 69.7128 16.7179 69.6221 16.6764C69.5314 16.6329 69.3953 16.6121 69.2139 16.6121H68.6882V20.8544H66.1855V7.24805H68.6882H68.6861Z" fill="#1B2E6A"/>
<path d="M78.9525 8.7713C78.9525 8.98497 78.9113 9.18204 78.8268 9.36459C78.7423 9.54714 78.6289 9.70895 78.4866 9.85001C78.3444 9.989 78.1774 10.0989 77.9878 10.1778C77.7981 10.2566 77.5919 10.296 77.3755 10.296C77.1714 10.296 76.9756 10.2566 76.79 10.1778C76.6045 10.0989 76.4437 9.989 76.3056 9.85001C76.1675 9.70895 76.0561 9.54922 75.9757 9.36459C75.8933 9.18204 75.8521 8.98497 75.8521 8.7713C75.8521 8.55763 75.8933 8.36056 75.9757 8.17386C76.0582 7.98923 76.1675 7.82535 76.3056 7.68429C76.4458 7.5453 76.6066 7.43535 76.79 7.35652C76.9735 7.2777 77.1693 7.23828 77.3755 7.23828C77.594 7.23828 77.7981 7.2777 77.9878 7.35652C78.1774 7.43535 78.3444 7.5453 78.4866 7.68429C78.6289 7.82535 78.7423 7.98716 78.8268 8.17386C78.9113 8.35848 78.9525 8.55763 78.9525 8.7713ZM78.6536 11.4453V20.855H76.151V11.4453H78.6536Z" fill="#1B2E6A"/>
<path d="M84.0218 21.0006C83.5971 21.0006 83.224 20.9383 82.8962 20.8139C82.5705 20.6894 82.2943 20.511 82.0716 20.2787C81.8469 20.0484 81.6779 19.7683 81.5645 19.4385C81.4491 19.1087 81.3913 18.7394 81.3913 18.3245V13.2504H80.5111C80.3771 13.2504 80.2637 13.2089 80.1709 13.1239C80.0782 13.0388 80.0308 12.9123 80.0308 12.7401V11.7547L81.5274 11.4809L82.0345 9.04551C82.1005 8.77168 82.286 8.63477 82.587 8.63477H83.894V11.5017H86.3059V13.2525H83.894V18.1627C83.894 18.4241 83.9558 18.6315 84.0795 18.783C84.2032 18.9344 84.3805 19.0112 84.6093 19.0112C84.731 19.0112 84.832 18.9966 84.9165 18.9697C85.001 18.9427 85.0732 18.9116 85.135 18.8784C85.1948 18.8452 85.2505 18.8141 85.3041 18.7871C85.3556 18.7602 85.4071 18.7456 85.4628 18.7456C85.535 18.7456 85.5968 18.7622 85.6442 18.7975C85.6916 18.8307 85.7411 18.8867 85.7885 18.9655L86.541 20.1708C86.1967 20.4446 85.8071 20.65 85.3721 20.791C84.9371 20.9321 84.4857 21.0006 84.0218 21.0006Z" fill="#1B2E6A"/>
<path d="M99.9674 20.8556H98.5162C98.3533 20.8556 98.2193 20.8142 98.1162 20.7333C98.0131 20.6503 97.9348 20.5424 97.8791 20.4096L96.7103 17.3353H90.934L89.763 20.4096C89.728 20.5258 89.6517 20.6295 89.5404 20.7208C89.4291 20.8121 89.293 20.8577 89.1364 20.8577H87.6851L92.8718 7.76172H94.7663L99.9633 20.8577L99.9674 20.8556ZM91.4514 15.9828H96.1949L94.2262 10.8257C94.1602 10.6618 94.0922 10.471 94.0221 10.2552C93.952 10.0395 93.884 9.80298 93.818 9.54782C93.752 9.80298 93.684 10.0395 93.618 10.2594C93.5521 10.4792 93.484 10.6701 93.4181 10.834L91.4514 15.9807V15.9828Z" fill="#1B2E6A"/>
<path d="M106.65 13.1634C106.566 13.3087 106.448 13.3833 106.296 13.3833C106.199 13.3833 106.092 13.3501 105.974 13.2817C105.857 13.2153 105.717 13.1406 105.554 13.0576C105.391 12.9747 105.195 12.9021 104.968 12.8336C104.741 12.7672 104.473 12.734 104.166 12.734C103.907 12.734 103.669 12.7672 103.459 12.8336C103.247 12.9 103.068 12.9933 102.921 13.1074C102.773 13.2236 102.657 13.3584 102.577 13.514C102.497 13.6696 102.453 13.8376 102.453 14.0202C102.453 14.2505 102.521 14.4434 102.657 14.599C102.793 14.7545 102.971 14.8873 103.193 14.9993C103.414 15.1114 103.667 15.213 103.95 15.3001C104.234 15.3873 104.525 15.4806 104.82 15.5781C105.117 15.6756 105.407 15.7876 105.69 15.9121C105.974 16.0366 106.226 16.1901 106.448 16.3726C106.669 16.5552 106.846 16.7792 106.982 17.0427C107.118 17.3061 107.186 17.6256 107.186 17.9969C107.186 18.4284 107.11 18.8267 106.956 19.1918C106.801 19.5569 106.574 19.8743 106.275 20.1419C105.976 20.4095 105.609 20.619 105.174 20.7705C104.739 20.924 104.236 20.9986 103.667 20.9986C103.026 20.9986 102.443 20.8928 101.913 20.6792C101.383 20.4655 100.938 20.1938 100.575 19.866L100.975 19.2084C101.023 19.1233 101.084 19.057 101.157 19.0134C101.229 18.9678 101.319 18.9449 101.429 18.9449C101.544 18.9449 101.662 18.9864 101.783 19.0715C101.903 19.1565 102.051 19.2478 102.222 19.3495C102.395 19.4511 102.604 19.5424 102.849 19.6274C103.094 19.7125 103.397 19.754 103.76 19.754C104.069 19.754 104.335 19.7146 104.562 19.6357C104.789 19.5569 104.979 19.4511 105.129 19.3204C105.28 19.1897 105.393 19.0362 105.465 18.8599C105.537 18.6836 105.574 18.4989 105.574 18.3019C105.574 18.0529 105.506 17.8455 105.37 17.6816C105.234 17.5177 105.055 17.3787 104.834 17.2626C104.614 17.1464 104.36 17.0468 104.078 16.9618C103.793 16.8767 103.503 16.7854 103.202 16.6879C102.903 16.5904 102.61 16.4784 102.325 16.3539C102.041 16.2295 101.789 16.0697 101.569 15.8747C101.348 15.6798 101.169 15.4453 101.033 15.1674C100.897 14.8894 100.829 14.5512 100.829 14.1488C100.829 13.7899 100.901 13.4456 101.047 13.1178C101.192 12.79 101.406 12.4996 101.686 12.2507C101.967 12.0018 102.313 11.8026 102.725 11.6574C103.136 11.5122 103.606 11.4375 104.131 11.4375C104.735 11.4375 105.284 11.5329 105.776 11.7258C106.269 11.9188 106.688 12.1843 107.032 12.5245L106.65 13.1551V13.1634Z" fill="#1B2E6A"/>
<path d="M115.004 20.8544C114.835 20.8544 114.705 20.8274 114.614 20.7714C114.524 20.7175 114.451 20.6096 114.396 20.452L114.206 19.6201C113.971 19.84 113.738 20.0371 113.507 20.2092C113.278 20.3835 113.037 20.5287 112.786 20.6428C112.534 20.759 112.268 20.8461 111.984 20.9063C111.699 20.9685 111.382 20.9975 111.031 20.9975C110.681 20.9975 110.33 20.9477 110.015 20.8461C109.7 20.7465 109.425 20.593 109.195 20.3856C108.962 20.1781 108.778 19.9209 108.642 19.6139C108.506 19.3069 108.438 18.9438 108.438 18.5227C108.438 18.1576 108.535 17.8091 108.733 17.473C108.929 17.1391 109.25 16.8383 109.693 16.5727C110.139 16.3093 110.718 16.0915 111.435 15.9193C112.153 15.7492 113.033 15.6517 114.078 15.6268V14.9339C114.078 14.2348 113.928 13.7058 113.629 13.3511C113.33 12.9943 112.891 12.8159 112.309 12.8159C111.916 12.8159 111.588 12.8678 111.326 12.9673C111.062 13.069 110.838 13.1769 110.646 13.2972C110.456 13.4154 110.287 13.5233 110.143 13.6208C109.999 13.7183 109.852 13.766 109.708 13.766C109.586 13.766 109.485 13.7349 109.405 13.6706C109.324 13.6063 109.252 13.5316 109.192 13.4465L108.885 12.8802C109.399 12.3948 109.953 12.0297 110.549 11.787C111.145 11.5443 111.802 11.4219 112.522 11.4219C113.041 11.4219 113.505 11.5069 113.909 11.677C114.313 11.8471 114.653 12.0857 114.93 12.3927C115.204 12.6997 115.412 13.069 115.556 13.5025C115.699 13.934 115.769 14.4132 115.769 14.936V20.8502H115.006L115.004 20.8544ZM111.549 19.7861C111.821 19.7861 112.072 19.7591 112.305 19.7031C112.538 19.6491 112.755 19.5703 112.959 19.4645C113.161 19.3608 113.353 19.2343 113.534 19.087C113.715 18.9376 113.897 18.7675 114.078 18.5808V16.7179C113.353 16.7428 112.736 16.8009 112.229 16.8922C111.722 16.9835 111.31 17.1017 110.99 17.249C110.673 17.3942 110.442 17.5705 110.297 17.7738C110.153 17.9771 110.079 18.2012 110.079 18.4439C110.079 18.6866 110.116 18.8837 110.192 19.0538C110.269 19.2239 110.372 19.3629 110.506 19.4687C110.64 19.5745 110.794 19.6554 110.974 19.7072C111.151 19.7591 111.345 19.784 111.549 19.784V19.7861Z" fill="#1B2E6A"/>
<path d="M118.168 20.855V11.5926H119.203C119.445 11.5926 119.597 11.7088 119.657 11.9411L119.774 12.8435C120.112 12.4348 120.492 12.1008 120.908 11.8395C121.327 11.5781 121.813 11.4474 122.368 11.4474C122.984 11.4474 123.483 11.6175 123.864 11.9536C124.246 12.2917 124.52 12.7501 124.689 13.3268C124.823 12.9991 124.994 12.717 125.206 12.4784C125.419 12.2398 125.654 12.0469 125.913 11.8934C126.173 11.742 126.449 11.6299 126.744 11.5553C127.037 11.4827 127.336 11.4453 127.637 11.4453C128.622 11.4453 129.385 11.7482 129.923 12.3539C130.461 12.9597 130.729 13.8247 130.729 14.9511V20.855H129.006V14.9511C129.006 14.252 128.853 13.7231 128.548 13.3642C128.243 13.0053 127.8 12.8248 127.218 12.8248C126.959 12.8248 126.713 12.8705 126.48 12.9617C126.247 13.053 126.043 13.1879 125.868 13.3642C125.693 13.5405 125.553 13.7625 125.452 14.0301C125.349 14.2977 125.297 14.6047 125.297 14.9511V20.855H123.574V14.9511C123.574 14.2334 123.429 13.7002 123.143 13.3497C122.856 12.9991 122.434 12.8248 121.879 12.8248C121.498 12.8248 121.139 12.9265 120.805 13.1298C120.469 13.3331 120.166 13.6152 119.894 13.9741V20.855H118.171H118.168Z" fill="#1B2E6A"/>
<path fill-rule="evenodd" clip-rule="evenodd" d="M29.5446 13.0175C29.6992 13.0652 29.8456 13.1026 30.0043 13.1316L30.0332 13.1378C32.2431 13.5278 34.4551 11.8102 34.4551 9.40175C34.4551 8.28155 33.9974 7.30033 33.2635 6.61577C32.6616 6.05359 31.872 5.69264 30.998 5.6221C31.2639 5.4437 31.5236 5.28189 31.7813 5.13253C32.5358 4.74876 33.3872 4.53302 34.2902 4.53302C36.9866 4.53302 39.6253 6.59917 39.6418 9.41835V9.44739C39.6418 9.49718 39.6418 9.54904 39.6418 9.59882C39.6418 9.65068 39.6418 9.70047 39.6377 9.75026V9.75648C39.6377 9.80419 39.6336 9.84983 39.6315 9.89754V9.91207C39.6294 9.9577 39.6253 10.0033 39.6232 10.049V10.0614C39.6191 10.1071 39.6171 10.1548 39.6129 10.2004V10.2087C39.6088 10.2523 39.6047 10.2979 39.6006 10.3415V10.3601C39.5944 10.4058 39.5903 10.4514 39.5841 10.4971V10.5033V10.5157C39.5779 10.5593 39.5717 10.6008 39.5676 10.6443V10.6651C39.5593 10.7066 39.5532 10.7481 39.547 10.7896L39.5429 10.8124C39.5367 10.8539 39.5305 10.8933 39.5243 10.9348L39.5202 10.9576C39.514 10.997 39.5078 11.0364 39.4996 11.0738L39.4954 11.1028C39.4893 11.1422 39.481 11.1816 39.4728 11.2231L39.4686 11.2459C39.4604 11.2833 39.4521 11.3227 39.4439 11.36L39.4357 11.4036L39.413 11.5032L39.4006 11.553C39.3924 11.5882 39.3841 11.6214 39.3759 11.6567L39.3676 11.6878C39.3594 11.7231 39.3491 11.7604 39.3388 11.7957L39.3305 11.8268C39.3223 11.86 39.312 11.8952 39.3017 11.9284L39.2893 11.9699C39.281 11.999 39.2728 12.0301 39.2625 12.0591L39.246 12.1131L39.2192 12.1981L39.2006 12.2583L39.178 12.3288L39.1532 12.4014L39.1306 12.4678L39.1079 12.5342L39.0831 12.6006L39.0584 12.669L39.0275 12.7478L39.0069 12.8018C38.5121 14.0423 37.6257 15.2704 36.1682 15.3762C34.018 15.5317 32.641 13.9137 30.6516 13.9054H30.629L30.5589 13.9033H30.53C30.4991 13.9033 30.4702 13.9033 30.4393 13.9033C30.4125 13.9033 30.3878 13.9033 30.361 13.9033H30.3568H30.3527H30.3445H30.328H30.3197H30.3156H30.3074H30.295H30.2744H30.2703H30.262H30.2579H30.2125H30.2084H30.2002H30.196H30.1878C27.9469 14.0133 27.1718 15.4177 25.4628 15.4177C22.5005 15.4197 21.5625 11.8724 21.5625 9.44531C21.5625 7.01821 22.5809 4.64711 24.2239 3H30.5898C29.2766 4.31313 26.9409 7.37709 26.9162 9.40175C26.8956 11.0074 28.0232 12.5279 29.5446 13.0175ZM30.5279 13.9012C30.497 13.9012 30.4682 13.9012 30.4372 13.9012C30.4104 13.9012 30.3857 13.9012 30.3589 13.9012H30.5279Z" fill="#FDC500"/>
<path fill-rule="evenodd" clip-rule="evenodd" d="M21.5625 14.2952C21.8119 15.2225 23.4508 16.9754 25.601 16.7638C28.8251 16.4443 29.157 15.2038 30.5898 15.2225C32.3936 15.2474 33.1089 16.8592 35.6157 16.8592C38.5162 16.8592 39.5532 14.4342 39.6418 14.2952V20.8982H21.5625C21.5625 20.8982 21.5625 14.2454 21.5625 14.2952Z" fill="#E30613"/>
<path d="M146.396 8.9516C146.396 10.2958 145.953 11.5364 145.207 12.5321L144.522 12.0135C145.161 11.1609 145.539 10.1008 145.539 8.9516C145.539 7.80235 145.182 6.80454 144.576 5.96439L145.271 5.45615C145.98 6.43736 146.396 7.64469 146.396 8.94952V8.9516ZM143.698 10.0739C143.58 10.4141 143.413 10.7294 143.201 11.0136C143.069 11.1899 142.921 11.3538 142.756 11.5011C142.593 11.6505 142.415 11.7811 142.226 11.8952C141.717 12.2043 141.119 12.3786 140.482 12.3786C138.602 12.3786 137.078 10.8435 137.078 8.9516C137.078 7.0597 138.602 5.52668 140.482 5.52668C140.972 5.52668 141.436 5.6304 141.857 5.81918C142.133 5.94157 142.389 6.09923 142.622 6.288C142.855 6.47885 143.063 6.69667 143.236 6.94145C143.432 7.21113 143.588 7.50985 143.698 7.83139H144.541C144.405 7.33353 144.182 6.873 143.889 6.46641C143.673 6.16354 143.417 5.89386 143.129 5.65944C142.844 5.42711 142.525 5.23003 142.185 5.0786C141.663 4.84626 141.088 4.71764 140.482 4.71764V3.86297C141.21 3.86297 141.902 4.01855 142.527 4.29653L142.873 3.50824C142.141 3.18048 141.333 3 140.482 3C137.216 3 134.567 5.66359 134.567 8.9516C134.567 12.2396 137.216 14.9032 140.482 14.9032C141.589 14.9032 142.626 14.5982 143.512 14.063L143.071 13.3225C142.314 13.7788 141.428 14.0402 140.48 14.0402V13.1855C141.267 13.1855 142.005 12.9677 142.636 12.5881C142.871 12.447 143.09 12.2852 143.292 12.1027C143.494 11.9201 143.679 11.7189 143.842 11.499C144.157 11.0779 144.397 10.5966 144.539 10.0739H143.696H143.698ZM144.287 8.54708C144.065 8.54708 143.885 8.72756 143.885 8.9516C143.885 9.17564 144.065 9.35611 144.287 9.35611C144.51 9.35611 144.689 9.17564 144.689 8.9516C144.689 8.72756 144.51 8.54708 144.287 8.54708ZM143.617 4.40648C143.477 4.58073 143.504 4.83589 143.677 4.97488C143.85 5.11594 144.104 5.08897 144.242 4.91472C144.382 4.74046 144.355 4.48531 144.182 4.34632C144.009 4.20526 143.755 4.23222 143.617 4.40648ZM144.446 12.7873C144.298 12.6213 144.044 12.6068 143.879 12.7561C143.714 12.9055 143.7 13.1607 143.848 13.3266C143.997 13.4926 144.25 13.5071 144.415 13.3577C144.58 13.2084 144.595 12.9532 144.446 12.7873Z" fill="#E30613"/>
</g>
<defs>
<clipPath id="clip0_12654_314989">
<rect width="124.875" height="18" fill="white" transform="translate(21.5625 3)"/>
</clipPath>
</defs>
</svg>
