<svg width="40" height="40" viewBox="0 0 40 40" fill="none" xmlns="http://www.w3.org/2000/svg">
<path d="M0 20C0 8.95431 8.95431 0 20 0C31.0457 0 40 8.95431 40 20C40 31.0457 31.0457 40 20 40C8.95431 40 0 31.0457 0 20Z" fill="#002955"/>
<path d="M20 28.9612C17.48 28.9612 15.35 28.0913 13.61 26.3513C11.87 24.6113 11 22.4813 11 19.9613C11 17.6613 11.75 15.6613 13.25 13.9713C14.75 12.2812 16.67 11.3012 19 11.0112C19.22 10.9812 19.41 11.0112 19.58 11.1013C19.75 11.1912 19.88 11.3113 19.98 11.4613C20.08 11.6113 20.13 11.7913 20.14 11.9913C20.15 12.1913 20.09 12.3813 19.95 12.5713C19.67 13.0013 19.45 13.4613 19.31 13.9513C19.17 14.4413 19.1 14.9412 19.1 15.4812C19.1 16.9812 19.63 18.2613 20.68 19.3113C21.73 20.3613 23.01 20.8913 24.51 20.8913C25.03 20.8913 25.54 20.8112 26.05 20.6613C26.56 20.5113 27.01 20.3013 27.41 20.0312C27.59 19.9113 27.78 19.8612 27.97 19.8713C28.16 19.8813 28.33 19.9213 28.48 20.0113C28.65 20.0913 28.78 20.2213 28.87 20.3913C28.96 20.5613 28.99 20.7613 28.96 20.9913C28.73 23.2913 27.75 25.2013 26.02 26.7213C24.29 28.2413 22.29 29.0012 20.01 29.0012L20 28.9612Z" fill="#2A90FF"/>
<path d="M20.0017 26.9607C21.4717 26.9607 22.7817 26.5607 23.9517 25.7507C25.1217 24.9407 25.9717 23.8907 26.5017 22.5907C26.1717 22.6707 25.8317 22.7407 25.5017 22.7907C25.1717 22.8407 24.8317 22.8707 24.5017 22.8707C22.4517 22.8707 20.7017 22.1507 19.2617 20.7107C17.8217 19.2707 17.1017 17.5207 17.1017 15.4707C17.1017 15.1407 17.1317 14.8007 17.1817 14.4707C17.2317 14.1407 17.3017 13.8007 17.3817 13.4707C16.0817 14.0007 15.0317 14.8507 14.2217 16.0207C13.4117 17.1907 13.0117 18.5007 13.0117 19.9707C13.0117 21.9007 13.6917 23.5507 15.0617 24.9207C16.4317 26.2907 18.0817 26.9707 20.0117 26.9707L20.0017 26.9607Z" fill="#2A90FF"/>
</svg>
