<svg width="40" height="40" viewBox="0 0 40 40" fill="none" xmlns="http://www.w3.org/2000/svg">
<path d="M0 20C0 8.95431 8.95431 0 20 0C31.0457 0 40 8.95431 40 20C40 31.0457 31.0457 40 20 40C8.95431 40 0 31.0457 0 20Z" fill="#FFF7D4"/>
<path d="M20 25C18.62 25 17.44 24.51 16.46 23.54C15.48 22.57 15 21.39 15 20C15 18.61 15.49 17.44 16.46 16.46C17.43 15.48 18.61 15 20 15C21.39 15 22.56 15.49 23.54 16.46C24.52 17.43 25 18.61 25 20C25 21.39 24.51 22.56 23.54 23.54C22.57 24.52 21.39 25 20 25Z" fill="#FFCC00"/>
<path d="M10 21C9.72 21 9.48 20.9 9.29 20.71C9.1 20.52 9 20.28 9 20C9 19.72 9.1 19.48 9.29 19.29C9.48 19.1 9.72 19 10 19H12C12.28 19 12.52 19.1 12.71 19.29C12.9 19.48 13 19.72 13 20C13 20.28 12.9 20.52 12.71 20.71C12.52 20.9 12.28 21 12 21H10Z" fill="#FFCC00"/>
<path d="M28 21C27.72 21 27.48 20.9 27.29 20.71C27.1 20.52 27 20.28 27 20C27 19.72 27.1 19.48 27.29 19.29C27.48 19.1 27.72 19 28 19H30C30.28 19 30.52 19.1 30.71 19.29C30.9 19.48 31 19.72 31 20C31 20.28 30.9 20.52 30.71 20.71C30.52 20.9 30.28 21 30 21H28Z" fill="#FFCC00"/>
<path d="M20 13C19.72 13 19.48 12.9 19.29 12.71C19.1 12.52 19 12.28 19 12V10C19 9.72 19.1 9.48 19.29 9.29C19.48 9.1 19.72 9 20 9C20.28 9 20.52 9.1 20.71 9.29C20.9 9.48 21 9.72 21 10V12C21 12.28 20.9 12.52 20.71 12.71C20.52 12.9 20.28 13 20 13Z" fill="#FFCC00"/>
<path d="M20 31C19.72 31 19.48 30.9 19.29 30.71C19.1 30.52 19 30.28 19 30V28C19 27.72 19.1 27.48 19.29 27.29C19.48 27.1 19.72 27 20 27C20.28 27 20.52 27.1 20.71 27.29C20.9 27.48 21 27.72 21 28V30C21 30.28 20.9 30.52 20.71 30.71C20.52 30.9 20.28 31 20 31Z" fill="#FFCC00"/>
<path d="M13.65 15.0495L12.57 13.9995C12.37 13.8195 12.27 13.5795 12.28 13.2995C12.29 13.0195 12.38 12.7695 12.57 12.5695C12.77 12.3695 13.01 12.2695 13.3 12.2695C13.59 12.2695 13.82 12.3695 14 12.5695L15.05 13.6495C15.23 13.8495 15.33 14.0795 15.33 14.3495C15.33 14.6195 15.24 14.8495 15.05 15.0495C14.86 15.2495 14.64 15.3495 14.36 15.3395C14.08 15.3295 13.85 15.2395 13.65 15.0495Z" fill="#FFCC00"/>
<path d="M26 27.4299L24.95 26.3499C24.77 26.1499 24.67 25.9099 24.67 25.6399C24.67 25.3699 24.76 25.1399 24.95 24.9499C25.13 24.7499 25.36 24.6499 25.64 24.6599C25.92 24.6699 26.15 24.7599 26.35 24.9499L27.43 25.9999C27.63 26.1799 27.73 26.4199 27.72 26.6999C27.71 26.9799 27.62 27.2299 27.43 27.4299C27.23 27.6299 26.99 27.7299 26.7 27.7299C26.41 27.7299 26.18 27.6299 26 27.4299Z" fill="#FFCC00"/>
<path d="M24.95 15.05C24.75 14.87 24.65 14.64 24.66 14.36C24.67 14.08 24.76 13.85 24.95 13.65L26 12.57C26.18 12.37 26.42 12.27 26.7 12.28C26.98 12.29 27.23 12.38 27.43 12.57C27.63 12.77 27.73 13.01 27.73 13.3C27.73 13.59 27.63 13.82 27.43 14L26.35 15.05C26.15 15.23 25.92 15.33 25.65 15.33C25.38 15.33 25.15 15.24 24.95 15.05Z" fill="#FFCC00"/>
<path d="M12.58 27.4299C12.38 27.2299 12.28 26.9899 12.28 26.6999C12.28 26.4099 12.38 26.1799 12.58 25.9999L13.66 24.9499C13.86 24.7699 14.1 24.6699 14.37 24.6699C14.64 24.6699 14.87 24.7599 15.06 24.9499C15.26 25.1299 15.36 25.3599 15.35 25.6399C15.34 25.9199 15.25 26.1499 15.06 26.3499L14.01 27.4299C13.83 27.6299 13.59 27.7299 13.31 27.7199C13.03 27.7099 12.78 27.6199 12.58 27.4299Z" fill="#FFCC00"/>
</svg>
