<svg width="160" height="31" viewBox="0 0 160 31" fill="none" xmlns="http://www.w3.org/2000/svg">
<g clip-path="url(#clip0_9753_716)">
<path d="M55.3526 16.9772C55.8763 13.9739 57.6637 12.0166 60.4075 12.0166C63.1513 12.0166 64.9387 14.0177 65.3338 16.9772H55.3526ZM60.4075 6.70215C53.6091 6.70215 48.8584 12.1857 48.8584 18.8468V18.9344C48.8584 26.0747 54.045 30.9914 61.0629 30.9914C65.2899 30.9914 68.4288 29.3379 70.6082 26.6384L66.817 23.2875C64.9857 24.9848 63.3739 25.6801 61.1507 25.6801C58.1873 25.6801 56.0958 24.1142 55.4404 21.111H71.6994C71.7433 20.5003 71.7872 20.1088 71.7872 19.4574V19.3697C71.7872 12.7525 68.2124 6.70215 60.4106 6.70215" fill="#FF3B30"/>
<path d="M39.141 6.70215C35.7857 6.70215 33.8227 8.4872 32.2988 10.4445V7.13745H25.6729V30.4684H32.2988V17.4532C32.2988 14.3184 33.9105 12.7087 36.438 12.7087C38.9654 12.7087 40.4486 14.3184 40.4486 17.4532V30.4684H47.0745V15.3643C47.0745 10.0092 44.1551 6.70215 39.141 6.70215Z" fill="#FF3B30"/>
<path d="M6.6698 18.1073H21.0505V12.1446H6.6698V5.9627H23.0135V0H0V30.468H23.2299V24.5053H6.6698V18.1073Z" fill="#FF3B30"/>
<path d="M153.722 22.2411C153.722 24.6368 151.631 26.3342 148.536 26.3342C146.4 26.3342 144.917 25.2882 144.917 23.5063V23.4186C144.917 21.3298 146.661 20.1993 149.492 20.1993C151.104 20.1993 152.587 20.5469 153.719 21.0699V22.2443L153.722 22.2411ZM149.583 6.87715C145.616 6.87715 143.089 7.61623 140.518 8.74989L142.173 13.7981C144.309 13.0152 146.096 12.5361 148.624 12.5361C151.935 12.5361 153.635 14.0581 153.635 16.8014V17.1929C151.979 16.626 150.279 16.2346 147.924 16.2346C142.39 16.2346 138.511 18.5865 138.511 23.6786V23.7662C138.511 28.3792 142.129 30.9033 146.532 30.9033C149.756 30.9033 151.979 29.7289 153.594 27.9439V30.468H160V16.9298C160 10.6195 156.817 6.87402 149.583 6.87402" fill="#FF3B30"/>
<path d="M118.768 6.70215C115.585 6.70215 113.145 8.00805 111.097 10.4038C109.878 8.0519 107.567 6.70215 104.515 6.70215C101.16 6.70215 99.1533 8.4872 97.6293 10.4445V7.13745H91.0034V30.4684H97.6293V17.4532C97.6293 14.3184 99.1533 12.7087 101.64 12.7087C104.127 12.7087 105.519 14.3184 105.519 17.4532V30.4684H112.145V17.4532C112.145 14.3184 113.669 12.7087 116.156 12.7087C118.642 12.7087 120.034 14.3184 120.034 17.4532V30.4684H126.66V15.2767C126.66 9.66157 123.697 6.70215 118.771 6.70215" fill="#FF3B30"/>
<path d="M81.3735 11.8405V7.13988H74.7476V30.4708H81.3735V21.8525C81.3735 16.2812 84.0765 13.6256 88.4791 13.6256H88.8272V6.70458C84.9043 6.5292 82.725 8.62116 81.3735 11.8405Z" fill="#FF3B30"/>
<path d="M133.195 6.46363C134.939 6.46363 136.353 5.05125 136.353 3.31004C136.353 1.56883 134.939 0.15332 133.195 0.15332C131.452 0.15332 130.038 1.5657 130.038 3.31004C130.038 5.05438 131.452 6.46363 133.195 6.46363Z" fill="#FF3B30"/>
<path d="M136.507 23.2524V6.54492C135.666 7.403 134.493 7.93851 133.195 7.93851C131.897 7.93851 130.724 7.403 129.884 6.54492V27.1607C129.884 28.9865 131.367 30.4677 133.195 30.4677C135.023 30.4677 136.507 28.9865 136.507 27.1607V23.2524Z" fill="#FF3B30"/>
</g>
<defs>
<clipPath id="clip0_9753_716">
<rect width="160" height="30.991" fill="white"/>
</clipPath>
</defs>
</svg>
